<svg width="35" height="34" viewBox="0 0 35 34" fill="none" xmlns="http://www.w3.org/2000/svg">
<g clip-path="url(#clip0_506_2770)">
<path d="M32.956 13.2098L31.7944 5.66108C31.7434 5.32915 31.5752 5.02645 31.3204 4.80773C31.0656 4.58901 30.7409 4.4687 30.405 4.46858C22.7171 4.46858 18.7768 0.694201 18.743 0.661857C18.4795 0.399942 18.1231 0.25293 17.7516 0.25293C17.3801 0.25293 17.0237 0.399942 16.7602 0.661857C16.7208 0.694201 12.7805 4.46858 5.09255 4.46858C4.75672 4.4687 4.43203 4.58901 4.1772 4.80773C3.92236 5.02645 3.75422 5.32915 3.70317 5.66108L2.54161 13.2098C2.02062 16.6389 2.56596 20.1453 4.10381 23.2542C5.64165 26.3631 8.09771 28.9243 11.1394 30.5911L17.0738 33.8254C17.2804 33.9382 17.512 33.9973 17.7474 33.9973C17.9828 33.9973 18.2144 33.9382 18.421 33.8254L24.3554 30.5911C27.3976 28.9247 29.8542 26.3637 31.3926 23.2547C32.931 20.1458 33.4767 16.6392 32.956 13.2098ZM23.011 28.1161L17.7488 30.9919L12.4866 28.1217C9.95076 26.7335 7.90277 24.5996 6.61996 22.0088C5.33716 19.418 4.88152 16.4956 5.31473 13.6373L6.29911 7.25154C10.4049 7.15961 14.3906 5.8482 17.7488 3.4842C21.1057 5.8479 25.0897 7.15977 29.1943 7.25295L30.1786 13.6373C30.6122 16.4952 30.1572 19.4173 28.8752 22.008C27.5932 24.5987 25.5461 26.7329 23.011 28.1217V28.1161Z" fill="#342F42"/>
<path d="M22.3805 11.9123L14.9372 19.3556L13.1189 17.5373C12.9892 17.403 12.834 17.2959 12.6625 17.2222C12.4909 17.1485 12.3064 17.1097 12.1196 17.1081C11.9329 17.1064 11.7477 17.142 11.5749 17.2127C11.4021 17.2834 11.2451 17.3879 11.1131 17.5199C10.981 17.6519 10.8766 17.8089 10.8059 17.9818C10.7352 18.1546 10.6996 18.3398 10.7012 18.5265C10.7028 18.7132 10.7416 18.8977 10.8153 19.0693C10.889 19.2409 10.9962 19.396 11.1305 19.5258L13.943 22.3383C14.2067 22.6019 14.5643 22.75 14.9372 22.75C15.3101 22.75 15.6677 22.6019 15.9314 22.3383L24.3689 13.9008C24.6251 13.6355 24.7668 13.2803 24.7636 12.9116C24.7604 12.5429 24.6125 12.1902 24.3518 11.9295C24.0911 11.6687 23.7384 11.5208 23.3696 11.5176C23.0009 11.5144 22.6457 11.6562 22.3805 11.9123Z" fill="#342F42"/>
</g>
<defs>
<clipPath id="clip0_506_2770">
<rect width="33.75" height="33.75" fill="white" transform="translate(0.875 0.25)"/>
</clipPath>
</defs>
</svg>
