<svg width="32" height="32" viewBox="0 0 32 32" fill="none" xmlns="http://www.w3.org/2000/svg">
<path d="M25.9872 21.2703C25.1013 20.8766 24.5106 19.9906 24.5106 19.0062V14.1828C24.5106 11.8203 23.6247 9.65469 21.8528 8.07969C20.1794 6.30781 17.8169 5.42188 15.3559 5.42188C10.5325 5.52031 6.595 9.65469 6.595 14.4781C6.595 18.4156 5.61063 22.4516 3.74031 25.9953L3.24813 26.9797C2.95281 27.4719 3.14969 28.0625 3.64188 28.2594C3.74031 28.3578 3.93719 28.3578 4.13406 28.3578C4.52781 28.3578 4.82313 28.1609 5.02 27.8656L5.51219 26.8812C7.48094 23.0422 8.56375 18.8094 8.56375 14.4781C8.56375 10.7375 11.6153 7.48906 15.3559 7.39062C17.3247 7.29219 19.195 8.07969 20.5731 9.35937C21.8528 10.6391 22.6403 12.3125 22.6403 14.0844V18.9078C22.6403 20.6797 23.6247 22.1562 25.1997 22.9437C25.6919 23.1406 26.2825 22.9437 26.4794 22.55C26.6763 22.1562 26.4794 21.5656 25.9872 21.2703Z" fill="#342F42"/>
<path d="M15.6523 1.48438C8.56484 1.48438 2.85547 7.48906 2.85547 14.8719C2.85547 15.4625 3.24922 15.8563 3.83984 15.8563C4.43047 15.8563 4.82422 15.4625 4.82422 14.8719C4.82422 8.57188 9.74609 3.45312 15.6523 3.45312C21.5586 3.45312 26.4805 8.57188 26.4805 14.8719V18.2188C26.4805 18.8094 26.8742 19.2031 27.4648 19.2031C28.0555 19.2031 28.4492 18.8094 28.4492 18.2188V14.8719C28.4492 7.48906 22.7398 1.48438 15.6523 1.48438Z" fill="#342F42"/>
<path d="M19.0005 10.6388C18.0161 9.75285 16.7364 9.26066 15.3583 9.3591C12.8974 9.45754 11.0271 11.4263 11.0271 13.7888C11.0271 19.2029 9.45205 24.5185 6.49893 29.2435L6.40049 29.4403C6.10518 29.9325 6.20361 30.5232 6.6958 30.8185C6.79424 31.0154 6.99111 31.0154 7.18799 31.0154C7.4833 31.0154 7.87705 30.8185 7.97549 30.5232L8.07393 30.3263C11.2239 25.306 12.8974 19.5966 12.8974 13.7888C12.8974 12.5091 13.9802 11.3279 15.3583 11.3279C16.1458 11.2294 16.9333 11.5247 17.4255 12.1154C17.9177 12.5091 18.1146 13.0997 18.1146 13.6904C18.5083 20.8763 14.4724 29.4403 14.3739 29.5388C14.1771 30.031 14.3739 30.6216 14.8661 30.8185C15.3583 31.0154 15.9489 30.8185 16.1458 30.3263C16.3427 29.9325 20.477 21.1716 20.0833 13.5919C20.2802 12.5091 19.788 11.4263 19.0005 10.6388Z" fill="#342F42"/>
<path d="M16.7356 14.3791C16.834 13.887 16.4403 13.3948 15.8497 13.2963C15.3575 13.1979 14.8653 13.5916 14.7668 14.1823L14.57 15.5604C14.0778 20.3838 12.7981 25.1088 10.8293 29.637C10.6325 30.1291 10.8293 30.7198 11.3215 30.9166C11.5184 31.0151 11.7153 31.0151 11.8137 31.0151C12.2075 31.0151 12.6012 30.8182 12.6997 30.4244C14.6684 25.7979 15.9481 20.876 16.5387 15.7573L16.7356 14.3791Z" fill="#342F42"/>
</svg>
