<svg width="26" height="25" viewBox="0 0 26 25" fill="none" xmlns="http://www.w3.org/2000/svg">
<path d="M13.8528 11.3852V11.3472C13.8449 11.36 13.8365 11.3728 13.8281 11.3852H13.8528Z" fill="#ECE8FF"/>
<path d="M23.3323 0.305176H2.52975C1.53407 0.305176 0.726562 1.09342 0.726562 2.0649V23.111C0.726562 24.0819 1.53407 24.8702 2.52975 24.8702H23.3323C24.3295 24.8702 25.137 24.0814 25.137 23.111V2.0649C25.137 1.09293 24.329 0.305176 23.3323 0.305176ZM8.1255 20.8692H4.43863V9.77696H8.1255V20.8692ZM6.28231 8.26171H6.25762C5.02092 8.26171 4.22082 7.40976 4.22082 6.34543C4.22082 5.25739 5.04561 4.42914 6.30651 4.42914C7.5679 4.42914 8.3438 5.25739 8.36849 6.34543C8.36849 7.40976 7.56741 8.26171 6.28231 8.26171ZM21.4205 20.8692H17.7336V14.9337C17.7336 13.4431 17.2002 12.4257 15.8662 12.4257C14.8478 12.4257 14.2413 13.1117 13.9741 13.7745C13.8768 14.0111 13.8531 14.342 13.8531 14.6739V20.8687H10.1662C10.1662 20.8687 10.2146 10.8161 10.1662 9.77647H13.8531V11.3465C14.3431 10.5909 15.2192 9.51471 17.1765 9.51471C19.602 9.51471 21.421 11.1006 21.421 14.5079L21.4205 20.8692Z" fill="#ECE8FF"/>
</svg>
