<svg width="24" height="29" viewBox="0 0 24 29" fill="none" xmlns="http://www.w3.org/2000/svg">
<path d="M18.9625 27.0429H2.44625C1.93929 27.0429 1.53906 26.6427 1.53906 26.1357V13.0615C1.53906 12.5545 1.93929 12.1543 2.44625 12.1543H21.1504C21.6574 12.1543 22.0576 12.5545 22.0576 13.0615V27.0429" stroke="#342F42" stroke-width="2.57895" stroke-miterlimit="10" stroke-linecap="round" stroke-linejoin="round"/>
<path d="M18.6417 12.1273V8.25836C18.6417 4.49618 15.5999 1.42773 11.8111 1.42773C8.02223 1.42773 4.98047 4.49618 4.98047 8.25836V12.1273" stroke="#342F42" stroke-width="2.57895" stroke-miterlimit="10" stroke-linecap="round" stroke-linejoin="round"/>
<path d="M11.5446 22.4534C12.9445 22.4534 14.0794 21.3185 14.0794 19.9186C14.0794 18.5187 12.9445 17.3838 11.5446 17.3838C10.1446 17.3838 9.00977 18.5187 9.00977 19.9186C9.00977 21.3185 10.1446 22.4534 11.5446 22.4534Z" stroke="#342F42" stroke-width="2.57895" stroke-miterlimit="10" stroke-linecap="round" stroke-linejoin="round"/>
</svg>
