<svg width="35" height="35" viewBox="0 0 35 35" fill="none" xmlns="http://www.w3.org/2000/svg">
<path d="M24.9625 30.0429H8.44625C7.93929 30.0429 7.53906 29.6427 7.53906 29.1357V16.0615C7.53906 15.5545 7.93929 15.1543 8.44625 15.1543H27.1504C27.6574 15.1543 28.0576 15.5545 28.0576 16.0615V30.0429" stroke="#342F42" stroke-width="2.57895" stroke-miterlimit="10" stroke-linecap="round" stroke-linejoin="round"/>
<path d="M24.6417 15.1273V11.2584C24.6417 7.49618 21.5999 4.42773 17.8111 4.42773C14.0222 4.42773 10.9805 7.49618 10.9805 11.2584V15.1273" stroke="#342F42" stroke-width="2.57895" stroke-miterlimit="10" stroke-linecap="round" stroke-linejoin="round"/>
<path d="M17.5446 25.4534C18.9445 25.4534 20.0794 24.3185 20.0794 22.9186C20.0794 21.5187 18.9445 20.3838 17.5446 20.3838C16.1446 20.3838 15.0098 21.5187 15.0098 22.9186C15.0098 24.3185 16.1446 25.4534 17.5446 25.4534Z" stroke="#342F42" stroke-width="2.57895" stroke-miterlimit="10" stroke-linecap="round" stroke-linejoin="round"/>
</svg>
