<svg width="33" height="26" viewBox="0 0 33 26" fill="none" xmlns="http://www.w3.org/2000/svg">
<path d="M27.6853 2.81919C27.6763 2.80187 27.6615 2.7883 27.6435 2.78091C25.5586 1.82435 23.3585 1.14225 21.0982 0.751673C21.0776 0.747855 21.0564 0.75061 21.0375 0.759544C21.0187 0.768478 21.0031 0.783138 20.993 0.801439C20.6934 1.34519 20.4215 1.90371 20.1782 2.47488C17.7416 2.10501 15.2633 2.10501 12.8267 2.47488C12.5818 1.90226 12.3055 1.3436 11.999 0.801439C11.9885 0.783536 11.9729 0.769214 11.9541 0.760337C11.9353 0.751461 11.9143 0.748442 11.8938 0.751673C9.63325 1.14143 7.43298 1.82358 5.34839 2.78096C5.33055 2.78853 5.31549 2.80144 5.3053 2.81793C1.13652 9.04345 -0.00546074 15.1159 0.554758 21.1131C0.556334 21.1278 0.56085 21.1421 0.568037 21.155C0.575224 21.1679 0.584936 21.1792 0.596594 21.1883C3.02403 22.9857 5.73915 24.3576 8.62609 25.2455C8.64642 25.2516 8.66813 25.2514 8.6883 25.2448C8.70847 25.2382 8.72613 25.2255 8.73891 25.2086C9.35896 24.3649 9.90837 23.4715 10.3816 22.5375C10.3881 22.5247 10.3918 22.5107 10.3924 22.4963C10.3931 22.482 10.3908 22.4676 10.3855 22.4542C10.3802 22.4409 10.3722 22.4288 10.3619 22.4187C10.3516 22.4087 10.3393 22.4009 10.3258 22.396C9.45945 22.0645 8.62069 21.6649 7.81742 21.2009C7.80283 21.1923 7.79058 21.1803 7.78174 21.1659C7.7729 21.1514 7.76776 21.135 7.76676 21.1181C7.76576 21.1012 7.76893 21.0844 7.77601 21.069C7.78308 21.0536 7.79383 21.0402 7.80731 21.03C7.97585 20.9037 8.14451 20.7723 8.30545 20.6397C8.31975 20.6279 8.33705 20.6203 8.35541 20.6179C8.37377 20.6154 8.39245 20.6181 8.40936 20.6257C13.6719 23.0274 19.3693 23.0274 24.5695 20.6257C24.5865 20.6176 24.6053 20.6145 24.624 20.6168C24.6426 20.619 24.6602 20.6265 24.6747 20.6384C24.8357 20.7711 25.0043 20.9037 25.1741 21.03C25.1877 21.0401 25.1985 21.0534 25.2057 21.0687C25.2129 21.0841 25.2162 21.1009 25.2153 21.1178C25.2145 21.1347 25.2094 21.1511 25.2007 21.1656C25.192 21.1801 25.1798 21.1922 25.1653 21.2009C24.3638 21.6688 23.5243 22.0682 22.6557 22.3947C22.6422 22.3999 22.6299 22.4078 22.6197 22.418C22.6095 22.4282 22.6015 22.4404 22.5964 22.4539C22.5912 22.4674 22.589 22.4818 22.5898 22.4962C22.5905 22.5106 22.5944 22.5247 22.601 22.5375C23.0821 23.4663 23.6307 24.3586 24.2424 25.2071C24.2548 25.2245 24.2724 25.2376 24.2926 25.2444C24.3129 25.2513 24.3348 25.2516 24.3552 25.2454C27.2473 24.3604 29.9672 22.9884 32.3976 21.1883C32.4095 21.1797 32.4193 21.1686 32.4266 21.1559C32.4338 21.1431 32.4382 21.129 32.4395 21.1144C33.1102 14.181 31.3166 8.15827 27.6853 2.81919ZM11.1675 17.4614C9.58306 17.4614 8.27756 16.0075 8.27756 14.2218C8.27756 12.4361 9.55774 10.9821 11.1675 10.9821C12.7898 10.9821 14.0826 12.4488 14.0573 14.2217C14.0573 16.0075 12.7771 17.4614 11.1675 17.4614ZM21.8523 17.4614C20.268 17.4614 18.9625 16.0075 18.9625 14.2218C18.9625 12.4361 20.2426 10.9821 21.8523 10.9821C23.4747 10.9821 24.7675 12.4488 24.7422 14.2217C24.7422 16.0075 23.4747 17.4614 21.8523 17.4614Z" fill="#ECE8FF"/>
</svg>
