<svg width="27" height="34" viewBox="0 0 27 34" fill="none" xmlns="http://www.w3.org/2000/svg">
<g clip-path="url(#clip0_1018_2124)">
<path d="M26.7816 3.49498C26.6756 3.36691 26.5308 3.27582 26.3684 3.2351C26.2061 3.19438 26.0347 3.20619 25.8797 3.26879C25.5498 3.40278 17.7768 6.45557 14.2653 0.387437C14.1969 0.269157 14.098 0.170838 13.9787 0.102452C13.8594 0.0340666 13.7239 -0.00195312 13.5859 -0.00195312C13.448 -0.00195313 13.3124 0.0340666 13.1931 0.102452C13.0738 0.170838 12.9749 0.269157 12.9066 0.387437C9.39509 6.45413 1.62201 3.40134 1.29363 3.26879C1.13875 3.20569 0.967436 3.19334 0.804911 3.23356C0.642385 3.27379 0.497238 3.36446 0.390841 3.49224C0.284444 3.62001 0.222421 3.77814 0.213903 3.94332C0.205384 4.10851 0.250822 4.27203 0.343525 4.40981C3.1165 8.51862 1.47606 13.3161 1.46001 13.3607C-0.257773 18.1524 -0.197935 22.0423 1.63806 24.9236C2.85963 26.8426 4.81677 28.266 7.62185 29.273C9.67282 30.0345 11.5094 31.2695 12.9781 32.8747C13.0507 32.9641 13.1426 33.0364 13.2472 33.0863C13.3517 33.1361 13.4662 33.1623 13.5823 33.1629C13.6975 33.1625 13.8112 33.1372 13.9154 33.0887C14.0195 33.0401 14.1116 32.9695 14.185 32.8819C15.6543 31.2766 17.4913 30.0417 19.5427 29.2802C22.3493 28.2718 24.3078 26.8498 25.5265 24.9308C27.3625 22.0495 27.4238 18.1596 25.7046 13.3665C25.6885 13.319 24.0554 8.5215 26.821 4.41269C26.9149 4.27572 26.9617 4.11263 26.9546 3.94742C26.9475 3.78222 26.8869 3.62362 26.7816 3.49498ZM19.0115 27.828C16.9774 28.5772 15.1278 29.7445 13.5852 31.2525C12.0431 29.7439 10.1933 28.5766 8.15893 27.828C2.06277 25.644 0.355199 21.077 2.93698 13.8751C3.00704 13.6762 4.44023 9.51413 2.58817 5.26989C3.64544 5.5195 4.72673 5.65667 5.81358 5.67905H6.01353C9.24915 5.67905 11.8397 4.47608 13.5852 2.17676C15.3672 4.52218 18.0249 5.71939 21.3568 5.67761C22.4442 5.65532 23.5259 5.51815 24.5837 5.26845C22.7316 9.51269 24.1648 13.6748 24.2363 13.8751C26.8167 21.077 25.1033 25.644 19.0115 27.828Z" fill="#342F42" stroke="black" stroke-width="0.5"/>
<path d="M20.6642 13.669L16.8521 17.337C16.7614 17.4243 16.6936 17.5321 16.6544 17.6511C16.6153 17.77 16.606 17.8966 16.6273 18.0199L17.2593 21.6576L13.9507 19.9403C13.8382 19.8819 13.7129 19.8513 13.5858 19.8513C13.4587 19.8513 13.3335 19.8819 13.2209 19.9403L9.91235 21.6576L10.5443 18.0199C10.5657 17.8966 10.5564 17.77 10.5172 17.6511C10.4781 17.5321 10.4102 17.4243 10.3195 17.337L7.64289 14.761L11.3412 14.2309C11.4658 14.2122 11.5839 14.1641 11.6856 14.0906C11.7872 14.0171 11.8694 13.9204 11.9249 13.8088L13.5785 10.4952L15.2335 13.8088C15.2891 13.9204 15.3712 14.0171 15.4729 14.0906C15.5746 14.1641 15.6927 14.2122 15.8173 14.2309L17.2359 14.434C17.4413 14.4634 17.65 14.4111 17.8163 14.2886C17.9826 14.1661 18.0927 13.9834 18.1225 13.7807C18.1523 13.578 18.0994 13.3719 17.9752 13.2077C17.8511 13.0436 17.666 12.9349 17.4607 12.9054L16.4493 12.7614L14.2878 8.41341C14.2232 8.28432 14.1232 8.17564 13.9993 8.09965C13.8754 8.02367 13.7324 7.9834 13.5865 7.9834C13.4407 7.9834 13.2977 8.02367 13.1738 8.09965C13.0498 8.17564 12.9499 8.28432 12.8853 8.41341L10.7107 12.7614L5.85067 13.4587C5.70564 13.4783 5.5691 13.5377 5.45666 13.6302C5.34421 13.7228 5.26037 13.8446 5.21472 13.9819C5.16907 14.1192 5.16344 14.2664 5.19847 14.4067C5.2335 14.5471 5.30778 14.6748 5.41283 14.7754L8.93013 18.1596L8.0997 22.9383C8.07498 23.0804 8.09104 23.2265 8.14606 23.36C8.20107 23.4935 8.29285 23.6092 8.41101 23.6939C8.52916 23.7786 8.66898 23.8289 8.81463 23.8393C8.96028 23.8496 9.10595 23.8195 9.23516 23.7523L13.5814 21.4962L17.9292 23.7523C18.0584 23.8195 18.204 23.8496 18.3497 23.8393C18.4953 23.8289 18.6352 23.7786 18.7533 23.6939C18.8715 23.6092 18.9633 23.4935 19.0183 23.36C19.0733 23.2265 19.0893 23.0804 19.0646 22.9383L18.2444 18.1596L21.7617 14.7754C21.9103 14.6325 21.9954 14.4372 21.9981 14.2324C22.0009 14.0276 21.9211 13.8301 21.7763 13.6834C21.6315 13.5367 21.4337 13.4527 21.2262 13.45C21.0187 13.4473 20.8187 13.5261 20.67 13.669H20.6642Z" fill="#342F42" stroke="black" stroke-width="0.5"/>
</g>
<defs>
<clipPath id="clip0_1018_2124">
<rect width="27" height="34" fill="white"/>
</clipPath>
</defs>
</svg>
