<svg width="28" height="24" viewBox="0 0 28 24" fill="none" xmlns="http://www.w3.org/2000/svg">
<path d="M8.80545 23.3759C19.3715 23.3759 25.1507 14.622 25.1507 7.03066C25.1507 6.78205 25.1507 6.53453 25.1339 6.28811C26.2582 5.47485 27.2287 4.468 28 3.31453C26.9516 3.77911 25.8393 4.08371 24.7005 4.21836C25.8995 3.50064 26.7974 2.3709 27.2261 1.0409C26.0985 1.71 24.8647 2.18163 23.5782 2.43532C22.492 1.28027 20.975 0.624512 19.3896 0.624512C16.2351 0.624512 13.6394 3.2202 13.6394 6.37457C13.6394 6.81218 13.6894 7.24843 13.7883 7.67466C9.1717 7.44328 4.8644 5.2596 1.94879 1.6726C0.432633 4.28261 1.21712 7.66503 3.72734 9.34121C2.81323 9.31414 1.91877 9.06749 1.12 8.62217V8.69496C1.12077 11.4192 3.05851 13.787 5.72879 14.3264C4.8831 14.557 3.99558 14.5907 3.13491 14.4249C3.8856 16.7592 6.05035 18.3683 8.50194 18.4144C6.46811 20.0127 3.95429 20.8809 1.36752 20.8784C0.910438 20.8775 0.453797 20.8498 0 20.7954C2.62686 22.4812 5.68422 23.3756 8.80545 23.3714" fill="#ECE8FF"/>
</svg>
