<svg width="353" height="267" viewBox="0 0 353 267" fill="none" xmlns="http://www.w3.org/2000/svg">
<g clip-path="url(#clip0_219_2770)">
<path d="M230.137 109.564C229.366 109.675 228.579 109.616 227.833 109.391C227.087 109.165 226.4 108.779 225.819 108.259C225.239 107.739 224.779 107.098 224.473 106.381C224.166 105.665 224.021 104.889 224.046 104.11L206.363 97.3118L214.37 91.582L229.934 98.9164C231.24 99.046 232.453 99.6504 233.343 100.615C234.233 101.58 234.738 102.838 234.763 104.15C234.788 105.463 234.331 106.739 233.478 107.737C232.625 108.735 231.436 109.385 230.136 109.564L230.137 109.564Z" fill="#FFB7B7"/>
<path d="M220.033 104.687L222.794 94.9433L222.658 94.8507L196.796 77.2748L174.441 54.833L161.418 60.0384L162.273 64.1621L162.329 64.2127L192.052 90.8476L192.08 90.861L220.033 104.687Z" fill="#E6E7E8"/>
<path d="M193.54 126.942L153.516 121.329L157.039 96.7584H186.505L193.54 126.942Z" fill="#FFB6B6"/>
<path d="M125.531 247.255L133.742 249.164L145.007 218.39L132.89 215.573L125.531 247.255Z" fill="#FFB6B6"/>
<path d="M117.891 260.48L123.778 261.849L126.121 256.532L127.521 262.719L143.137 266.349C143.885 266.523 144.67 266.454 145.376 266.15C146.082 265.846 146.673 265.325 147.061 264.662C147.45 263.999 147.617 263.228 147.537 262.464C147.458 261.699 147.136 260.98 146.619 260.411L136.15 248.895L137.456 243.273L124.157 241.007L117.891 260.48Z" fill="#2F2E41"/>
<path d="M176.191 251.833H184.62L188.632 219.306H176.191V251.833Z" fill="#FFB6B6"/>
<path d="M171.742 266.444H177.787L178.866 260.735L181.629 266.444H197.661C198.43 266.444 199.178 266.199 199.797 265.743C200.416 265.287 200.873 264.646 201.102 263.912C201.331 263.178 201.319 262.39 201.068 261.663C200.818 260.936 200.341 260.308 199.709 259.872L186.906 251.026V245.253L173.44 246.058L171.742 266.444Z" fill="#2F2E41"/>
<path d="M153.011 117.16L192.153 114.045C203.703 141.039 196.359 184.131 187.482 232.64L174.893 234.269L173.916 156.32L142.356 228.836L129.234 228.165L153.011 117.16Z" fill="#2F2E41"/>
<path d="M175.794 46.0776V32.8293C175.795 30.4972 175.337 28.1878 174.446 26.033C173.555 23.8781 172.248 21.92 170.6 20.2706C168.952 18.6212 166.996 17.3128 164.842 16.4201C162.689 15.5273 160.381 15.0679 158.05 15.0679C155.719 15.0679 153.411 15.5273 151.257 16.4201C149.104 17.3128 147.147 18.6212 145.499 20.2706C143.852 21.92 142.545 23.8781 141.654 26.033C140.762 28.1878 140.304 30.4972 140.305 32.8293C137.178 39.3493 139.135 42.4492 140.305 46.0776C140.307 46.7095 140.558 47.3151 141.004 47.7619C141.451 48.2087 142.056 48.4602 142.688 48.4612H173.41C174.042 48.4605 174.648 48.2091 175.095 47.7623C175.541 47.3155 175.793 46.7097 175.794 46.0776Z" fill="#2F2E41"/>
<path d="M162.428 48.2613C169.613 48.2613 175.437 42.434 175.437 35.2456C175.437 28.0573 169.613 22.23 162.428 22.23C155.243 22.23 149.418 28.0573 149.418 35.2456C149.418 42.434 155.243 48.2613 162.428 48.2613Z" fill="#FFB7B7"/>
<path d="M179.991 33.8886C179.987 30.1655 178.507 26.596 175.875 23.9634C173.244 21.3308 169.676 19.8499 165.954 19.8457H163.306C159.585 19.8499 156.017 21.3308 153.385 23.9634C150.754 26.596 149.274 30.1655 149.27 33.8886V34.1537C151.253 35.5103 153.136 35.7087 154.867 34.1537L156.776 28.8058L157.157 34.1536H160.05L161.015 31.4556L161.208 34.1537C165.115 37.483 172.504 35.8875 179.991 34.1537L179.991 33.8886Z" fill="#2F2E41"/>
<path d="M154.84 103.94L187.963 102.679L189.815 80.9994C191.243 77.0312 191.266 73.6215 189.884 70.8724C188.695 68.6127 186.697 66.8853 184.29 66.0354L177.042 57.2773C176.11 56.1517 174.939 55.2473 173.614 54.6296C172.29 54.0118 170.845 53.6961 169.384 53.7053L150.551 53.8341C150.097 53.5612 147.343 52.1611 141.913 54.5152C136.023 57.069 137.391 65.9418 137.405 66.0308L137.419 66.1143L137.484 66.171L150.01 76.727L154.84 103.94Z" fill="#E6E7E8"/>
<path d="M0.55574 267H333.142C333.29 267 333.431 266.941 333.535 266.837C333.639 266.733 333.698 266.592 333.698 266.444C333.698 266.297 333.639 266.155 333.535 266.051C333.431 265.947 333.29 265.888 333.142 265.888H0.55574C0.40835 265.888 0.266997 265.947 0.162777 266.051C0.0585559 266.155 0 266.297 0 266.444C0 266.592 0.0585559 266.733 0.162777 266.837C0.266997 266.941 0.40835 267 0.55574 267Z" fill="#CCCCCC"/>
<path d="M242.718 135.407C242.694 148.036 237.947 160.2 229.413 169.506C220.879 178.812 209.173 184.588 196.598 185.697C184.023 186.807 171.488 183.17 161.457 175.502C151.427 167.834 144.626 156.689 142.392 144.259C140.158 131.829 142.653 119.012 149.385 108.328C156.118 97.6448 166.602 89.8674 178.776 86.5252C190.95 83.1829 203.933 84.5176 215.173 90.2668C226.413 96.016 235.097 105.764 239.517 117.594C239.627 117.891 239.735 118.188 239.84 118.488V118.491C240.306 119.809 240.717 121.152 241.072 122.52C242.169 126.727 242.722 131.058 242.718 135.407Z" fill="#3F3D56"/>
<path d="M186.247 101.047C183.959 99.8096 181.419 99.111 178.821 99.0046C176.223 98.8983 173.634 99.387 171.253 100.434C169.157 101.346 166.949 102.984 166.25 105.941C169.078 104.271 172.74 106.909 173.468 111.142L173.298 111.189C172.913 114.121 173.772 117.313 175.433 119.131C175.557 118.311 175.861 117.528 176.325 116.84C176.788 116.152 177.399 115.577 178.113 115.154C179.334 114.352 180.684 113.768 181.616 112.389C182.72 110.753 183.001 108.362 183.44 106.18C183.878 103.999 184.711 101.655 186.247 101.047Z" fill="#536DFE"/>
<path d="M170.413 125.997C169.63 127.174 168.583 127.912 167.644 128.832C166.56 129.818 165.849 131.148 165.631 132.597C165.512 133.622 165.696 134.663 165.67 135.698C165.645 136.734 165.3 137.899 164.596 138.157C163.484 138.559 162.636 136.493 161.494 136.349C160.586 136.236 159.769 137.665 160.032 138.904C160.294 140.143 161.53 140.692 162.24 139.883C162.882 140.961 162.43 142.916 161.465 143.247C161.363 143.926 161.262 144.602 161.163 145.281C158.725 143.575 156.262 141.841 154.189 139.342C151.884 136.587 150.454 133.206 150.083 129.632C149.814 126.761 150.213 123.476 148.895 121.266C147.84 119.498 146.03 119.107 144.401 119.218C144.105 119.238 143.805 119.272 143.508 119.308C144.468 116.422 145.689 113.628 147.153 110.962C147.484 110.82 147.792 110.628 148.066 110.393C149.582 109.106 150.255 106.5 151.485 104.698C151.565 104.582 151.647 104.469 151.731 104.359C152.99 102.715 154.675 101.869 156.304 101.082C159.91 99.3309 163.62 97.557 167.427 97.8003L166.343 97.905C165.079 101.447 163.814 104.989 162.548 108.532C162.356 109.075 162.162 109.619 161.966 110.164C161.247 112.179 160.507 114.323 160.617 116.578C160.682 117.913 161.146 119.339 162.028 119.798C162.851 120.222 163.75 119.702 164.545 119.187C164.881 118.972 165.215 118.757 165.552 118.539C166.759 117.761 168.097 116.963 169.372 117.483C170.54 117.959 171.403 119.546 171.567 121.258C171.717 122.922 171.311 124.588 170.413 125.997Z" fill="#536DFE"/>
<path d="M177.596 150.18C174.07 148.008 170.543 145.835 167.016 143.663L167.076 143.509C164.883 144.344 163.973 148.244 164.335 151.433C164.698 154.622 165.926 157.473 166.547 160.58C167.384 164.832 167.068 169.231 165.632 173.32C170.27 168.114 174.374 162.456 177.883 156.431C178.373 155.672 178.747 154.843 178.991 153.973C179.25 153.045 179.158 152.055 178.732 151.191C178.443 150.765 178.053 150.418 177.596 150.18Z" fill="#536DFE"/>
<path d="M163.677 110.657C163.263 111.547 163.199 112.56 163.498 113.494C163.846 114.247 164.478 114.832 165.255 115.122L167.203 116.088C167.852 116.409 168.55 116.734 169.211 116.47C170.008 116.151 170.561 114.9 170.418 113.74C170.266 112.505 169.488 111.655 168.768 110.932C167.761 109.919 166.754 108.907 165.747 107.894L165.179 108.59C164.565 109.189 164.057 109.888 163.677 110.657Z" fill="#536DFE"/>
<path d="M232.273 123.861C233.15 124.067 234.026 124.274 234.903 124.48C234.75 127.442 233.283 130.184 231.314 131.177C230.494 131.59 229.581 131.743 228.902 132.515C228.288 133.217 227.977 134.309 227.692 135.353C227.191 137.175 226.691 138.997 226.19 140.819C225.653 142.783 224.963 144.964 223.566 145.671C222.367 146.28 220.995 145.535 220.073 144.288C219.151 143.04 218.589 141.362 218.043 139.727C218.077 141.509 217.248 143.258 216.075 143.878C214.898 144.497 213.467 143.937 212.681 142.553C212.115 141.56 211.881 140.25 211.326 139.243C210.772 138.236 209.61 137.659 209.005 138.604C208.606 139.232 208.657 140.194 208.459 140.992C208.359 141.521 208.097 142.007 207.709 142.381C207.321 142.754 206.826 142.998 206.293 143.077C205.803 143.066 205.32 142.955 204.874 142.751C204.428 142.547 204.029 142.255 203.699 141.891C201.968 140.119 200.84 137.844 200.478 135.393C200.233 134.217 200.264 133.001 200.569 131.839C200.917 130.739 201.757 129.89 202.591 130.099C203.139 128.939 202.056 127.4 201.081 127.536C200.102 127.672 199.336 128.721 198.533 129.528C197.733 130.334 196.613 130.92 195.807 130.119C195.825 130.412 195.726 130.7 195.531 130.92C195.337 131.139 195.064 131.273 194.771 131.291C194.742 131.293 194.713 131.294 194.684 131.293C194.148 131.139 193.65 130.875 193.222 130.518C191.375 129.366 189.031 130.13 187.719 132.309C188.539 128.817 189.741 124.811 192.26 123.991C193.29 123.654 194.413 123.931 195.385 123.348C197.108 122.316 197.455 118.414 195.968 116.804C196.157 118.327 196.121 120.103 195.317 121.144C194.514 122.186 192.829 121.507 192.931 119.968C192.908 120.184 192.817 120.388 192.671 120.549C192.526 120.711 192.333 120.823 192.12 120.868C191.907 120.913 191.685 120.89 191.487 120.801C191.288 120.713 191.122 120.563 191.013 120.375C190.479 119.56 190.524 118.228 190.903 117.254C191.294 116.373 191.854 115.577 192.552 114.912C193.895 113.472 195.258 112.014 196.813 111.109C198.372 110.204 200.17 109.898 201.731 110.798C202.554 111.273 203.278 112.065 204.118 112.484C204.315 112.607 204.535 112.689 204.764 112.727C204.993 112.764 205.228 112.756 205.454 112.703C205.68 112.65 205.894 112.553 206.082 112.418C206.271 112.282 206.431 112.111 206.554 111.913C206.563 111.898 206.572 111.883 206.581 111.867C207.206 110.77 206.912 109.14 207.144 107.768C207.56 105.343 209.983 104.209 211.326 105.81C210.323 105.552 209.285 106.741 209.16 108.181C209.033 109.621 209.76 111.075 210.733 111.511C212.367 112.235 213.968 110.413 215.204 108.727C216.493 106.961 217.785 105.197 219.078 103.433C219.284 103.133 219.516 102.851 219.771 102.59C220.176 102.195 220.716 101.969 221.281 101.957C221.847 101.946 222.396 102.15 222.816 102.528C224.123 103.595 224.737 105.782 225.808 107.287C227.364 109.474 229.691 110.006 231.857 110.43C233.472 110.744 235.088 111.06 236.704 111.378C237.782 113.384 238.722 115.46 239.518 117.594C236.554 118.946 234.039 121.121 232.273 123.861Z" fill="#536DFE"/>
<path d="M241.07 122.52C240.738 123.497 240.557 124.518 240.532 125.55C239.147 123.858 238.926 120.686 239.837 118.491C240.303 119.809 240.714 121.152 241.07 122.52Z" fill="#536DFE"/>
<path d="M237.491 157.902C236.28 160.364 234.871 162.723 233.278 164.956C232.26 164.52 231.165 165.298 230.212 166.028C229.217 166.792 228.021 167.536 227 166.84C225.956 166.127 225.62 164.132 225.951 162.551C226.331 161.092 226.996 159.723 227.907 158.522C228.756 157.254 229.664 155.939 230.843 155.447C232.025 154.954 233.544 155.65 233.889 157.331L234.726 157.303C234.256 156.658 234.502 155.322 235.133 155.087C235.86 154.813 236.49 155.812 236.92 156.694C237.112 157.093 237.308 157.495 237.491 157.902Z" fill="#536DFE"/>
<path d="M205.433 145.952C203.634 146.065 202.208 143.849 201.261 141.669C200.314 139.489 199.45 136.996 197.827 135.886C196.899 135.252 195.842 135.165 194.835 134.858C194.265 134.714 193.737 134.436 193.295 134.047C192.853 133.657 192.51 133.169 192.295 132.62L191.154 132.159C189.557 132.958 188.095 134.001 186.82 135.25C185.364 136.798 184.456 138.783 184.238 140.898C184.02 143.184 184.825 145.732 186.33 146.591C187.518 147.269 188.902 146.841 190.106 147.462C191.611 148.238 192.504 150.493 192.842 152.718C193.18 154.944 193.094 157.257 193.336 159.508C193.578 161.759 194.245 164.101 195.624 165.254C197.351 166.698 199.884 165.498 200.658 162.871C201.038 161.582 201.025 160.127 201.309 158.789C201.81 156.433 203.16 154.685 204.231 152.752C205.302 150.82 206.145 148.195 205.433 145.952Z" fill="#536DFE"/>
<path d="M187.654 122.799C187.822 122.954 187.979 123.12 188.123 123.297C188.272 123.554 188.348 123.848 188.343 124.145C188.338 124.443 188.252 124.733 188.094 124.985C188.311 124.973 188.523 124.916 188.716 124.817C188.91 124.719 189.081 124.582 189.218 124.414C189.547 124.039 189.835 123.632 190.08 123.199C190.195 123.05 190.278 122.879 190.321 122.696C190.365 122.514 190.37 122.324 190.334 122.139C190.249 121.896 190.048 121.793 189.908 121.61C189.712 121.254 189.579 120.866 189.513 120.465C189.435 120.088 189.254 119.741 188.989 119.462C188.725 119.184 188.388 118.984 188.016 118.886L188.106 118.903C187.953 118.995 187.832 119.131 187.76 119.295C187.688 119.458 187.669 119.64 187.706 119.815C187.76 120.168 187.987 120.461 187.965 120.821C187.932 121.339 187.415 121.582 187.383 122.1C187.378 122.36 187.475 122.611 187.654 122.799Z" fill="#536DFE"/>
<path d="M184.57 114.001L184.578 114C184.634 113.949 184.686 113.894 184.733 113.835L184.57 114.001Z" fill="#536DFE"/>
<path d="M185.107 116.431C185.323 116.241 185.483 115.996 185.569 115.721C185.655 115.447 185.664 115.154 185.595 114.875C185.465 114.286 185.002 113.89 184.575 113.999C184.452 114.124 184.298 114.217 184.129 114.266C183.96 114.316 183.781 114.322 183.609 114.284C183.345 114.216 183.055 114.041 182.827 114.24C182.696 114.388 182.604 114.567 182.56 114.76C182.475 115.02 182.391 115.28 182.306 115.54C182.266 115.633 182.255 115.737 182.276 115.836C182.292 115.876 182.318 115.911 182.352 115.937C182.386 115.964 182.426 115.982 182.468 115.989C182.976 116.139 183.484 116.288 183.992 116.438C184.167 116.519 184.358 116.56 184.55 116.559C184.743 116.558 184.933 116.514 185.107 116.431Z" fill="#536DFE"/>
<path d="M223.468 149.986C223.234 149.601 222.999 149.216 222.764 148.831C222.533 148.386 222.218 147.99 221.835 147.665C221.753 147.596 221.657 147.543 221.554 147.511C221.451 147.478 221.342 147.467 221.235 147.476C221.127 147.486 221.022 147.516 220.926 147.566C220.831 147.616 220.746 147.685 220.676 147.767L220.664 147.782L220.693 148.002C221.322 148.677 221.75 149.513 221.93 150.418C221.984 150.811 221.965 151.218 222.012 151.613C222.017 151.796 222.058 151.976 222.133 152.144C222.207 152.311 222.314 152.462 222.447 152.588C222.817 152.835 223.251 152.47 223.515 152.026C223.75 151.66 223.855 151.226 223.814 150.794C223.756 150.504 223.638 150.228 223.468 149.986Z" fill="#536DFE"/>
<path d="M227.153 150.486C227.197 150.126 227.168 149.761 227.067 149.412C227.05 148.941 227.175 148.475 227.425 148.075C227.674 147.698 227.863 147.285 227.984 146.85C228.035 146.651 228.026 146.442 227.957 146.249C227.88 146.075 227.691 145.995 227.583 146.133L227.814 146.282C227.502 146.227 227.182 146.242 226.876 146.328C226.702 146.395 226.547 146.502 226.423 146.642C226.299 146.781 226.211 146.949 226.165 147.13C226.127 147.412 226.065 147.69 225.979 147.962C225.841 148.245 225.574 148.339 225.406 148.588C225.292 148.809 225.234 149.055 225.238 149.303C225.243 149.552 225.308 149.795 225.43 150.012C225.641 150.366 225.976 150.63 226.369 150.751C226.652 150.852 227.024 150.858 227.153 150.486Z" fill="#536DFE"/>
<path d="M233.713 152.467C233.815 152.733 233.952 152.984 234.12 153.214C234.434 153.53 234.861 153.336 235.242 153.259C235.587 153.204 235.942 153.244 236.267 153.374C236.591 153.505 236.875 153.721 237.087 153.999C236.94 153.262 236.617 152.571 236.147 151.984C235.677 151.397 235.073 150.932 234.385 150.627C233.492 150.318 232.551 150.17 231.607 150.192L231.445 150.233C231.857 151.431 233.148 151.404 233.713 152.467Z" fill="#536DFE"/>
<path d="M205.922 154.916L205.924 154.922L205.971 154.831L205.922 154.916Z" fill="#536DFE"/>
<path d="M204.931 156.844C204.714 157.238 204.527 157.648 204.372 158.071C204.168 158.756 204.032 159.459 203.968 160.171C203.917 160.576 203.902 161.093 204.155 161.29C204.228 161.338 204.316 161.358 204.402 161.347C204.489 161.335 204.568 161.292 204.625 161.226C204.766 161.077 204.881 160.906 204.966 160.719C205.464 159.861 205.851 158.942 206.117 157.986C206.395 156.972 206.329 155.894 205.929 154.921C205.596 155.562 205.264 156.203 204.931 156.844Z" fill="#536DFE"/>
<path d="M195.329 105.488C195.487 105.643 195.687 105.748 195.904 105.79C196.121 105.833 196.345 105.811 196.55 105.727C196.974 105.542 197.362 105.285 197.699 104.967C197.978 104.761 198.214 104.503 198.396 104.207C198.496 104.03 198.56 103.836 198.584 103.634C198.609 103.433 198.593 103.228 198.538 103.033C198.46 102.845 198.336 102.681 198.177 102.555C198.018 102.429 197.829 102.346 197.629 102.313C197.065 102.146 196.501 101.979 195.937 101.811L196.345 101.443C195.926 101.218 195.461 101.636 195.199 102.154C195.031 102.492 194.913 102.853 194.851 103.226C194.762 103.615 194.758 104.019 194.841 104.41C194.923 104.801 195.09 105.169 195.329 105.488Z" fill="#536DFE"/>
<path d="M205.282 102.144C205.441 102.319 205.661 102.427 205.897 102.447C206.132 102.466 206.367 102.395 206.552 102.247C206.711 102.127 206.844 101.975 206.941 101.801C207.037 101.627 207.096 101.434 207.114 101.235C207.154 100.791 206.934 100.298 206.621 100.26L206.693 99.8442C206.089 99.7351 205.346 99.7133 205.023 100.447C204.914 100.727 204.881 101.032 204.926 101.33C204.971 101.628 205.094 101.908 205.282 102.144Z" fill="#536DFE"/>
<path d="M145.84 146.616C145.26 146.095 144.802 145.454 144.497 144.736C144.192 144.019 144.048 143.244 144.074 142.465C144.101 141.686 144.298 140.922 144.652 140.227C145.005 139.533 145.507 138.924 146.121 138.444L140.004 120.507L149.534 122.984L153.877 139.636C154.615 140.722 154.929 142.041 154.76 143.343C154.59 144.645 153.949 145.84 152.958 146.701C151.967 147.561 150.694 148.028 149.382 148.013C148.069 147.997 146.808 147.501 145.838 146.617L145.84 146.616Z" fill="#FFB7B7"/>
<path d="M143.107 135.732L152.353 131.609L149.247 100.32L152.14 68.7687L139.794 62.103L137.179 65.4026V65.4775L135.793 105.375L135.8 105.405L143.107 135.732Z" fill="#E6E7E8"/>
<path d="M284.758 228.972C279.53 226.567 273.891 223.733 267.84 220.47C236.546 203.591 198.064 177.261 159.482 146.33C120.901 115.399 86.83 83.5609 63.5453 56.6828C52.2027 43.5895 44.0324 32.3764 39.2619 23.3548C34.2109 13.8037 33.1922 7.03531 36.2336 3.23808C42.159 -4.15943 61.4559 2.50361 76.6005 9.39592L76.047 10.6135C55.2495 1.14851 41.4807 -1.17359 37.277 4.07467C31.9228 10.759 41.8657 29.6145 64.5556 55.8067C87.7891 82.6257 121.798 114.404 160.318 145.286C198.839 176.168 237.249 202.451 268.475 219.293C298.969 235.74 319.53 241.34 324.884 234.655C329.329 229.105 323.266 215.127 307.81 195.295L308.865 194.473C320.095 208.883 332.171 227.697 325.927 235.492C322.886 239.289 316.061 239.769 305.643 236.919C299.705 235.293 292.716 232.633 284.758 228.972Z" fill="#536DFE"/>
<path d="M84.5531 138.782C70.1389 132.151 56.9661 125.491 45.4288 118.974C30.3485 110.454 18.8876 102.639 11.3645 95.7458C3.39967 88.4473 0.167115 82.4149 1.75667 77.816C4.85281 68.8571 25.2657 68.6463 41.8447 70.0469L41.732 71.3801C18.9649 69.4564 5.21683 71.8972 3.01998 78.2535C0.222034 86.3489 15.9191 100.766 46.0862 117.809C76.9759 135.259 119.68 153.758 166.332 169.896C212.984 186.035 257.988 197.878 293.054 203.245C327.3 208.485 348.546 206.848 351.344 198.753C353.667 192.031 343.262 180.904 322.045 167.42L322.761 166.291C338.178 176.088 355.871 189.749 352.608 199.19C351.018 203.789 344.751 206.535 333.982 207.352C323.809 208.124 309.971 207.187 292.852 204.567C257.709 199.189 212.621 187.325 165.895 171.16C136.583 161.02 108.816 149.945 84.5531 138.782Z" fill="#536DFE"/>
<path d="M106.42 70.7073C110.723 70.7073 114.212 67.2174 114.212 62.9123C114.212 58.6072 110.723 55.1172 106.42 55.1172C102.117 55.1172 98.6289 58.6072 98.6289 62.9123C98.6289 67.2174 102.117 70.7073 106.42 70.7073Z" fill="#E6E6E6"/>
<path d="M259.996 165.851C262.63 165.851 264.766 163.714 264.766 161.079C264.766 158.444 262.63 156.307 259.996 156.307C257.362 156.307 255.227 158.444 255.227 161.079C255.227 163.714 257.362 165.851 259.996 165.851Z" fill="#FF6584"/>
<path d="M26.729 207.737C31.0321 207.737 34.5204 204.247 34.5204 199.942C34.5204 195.637 31.0321 192.147 26.729 192.147C22.4259 192.147 18.9375 195.637 18.9375 199.942C18.9375 204.247 22.4259 207.737 26.729 207.737Z" fill="#E6E6E6"/>
</g>
<defs>
<clipPath id="clip0_219_2770">
<rect width="353" height="267" fill="white"/>
</clipPath>
</defs>
</svg>
