<svg width="98" height="96" viewBox="0 0 98 96" fill="none" xmlns="http://www.w3.org/2000/svg">
<g clip-path="url(#clip0_219_2875)">
<path d="M71.3773 17.8376C71.3654 21.5644 71.1122 25.2866 70.6193 28.981C70.6021 29.1107 70.5832 29.2404 70.5659 29.3702H35.5248C35.4212 29.242 35.3192 29.1123 35.2203 28.981C34.8907 28.5464 34.5816 28.0994 34.2975 27.6367C32.9321 25.4077 32.2981 22.7927 32.9086 20.9826L32.9196 20.9544C33.0513 20.5581 33.2604 20.1916 33.5348 19.8759C34.9409 18.2815 37.8035 18.5301 40.4071 19.7962C38.064 17.2702 36.1917 14.0768 36.0348 11.2179C35.881 8.42932 37.3342 6.42855 38.913 4.72633C38.9648 4.67006 39.0166 4.61535 39.0684 4.56064C39.0936 4.5325 39.1202 4.50593 39.1453 4.47779C40.3773 3.18042 41.8148 1.90024 43.9068 2.04249C46.2012 2.1988 48.7547 4.09797 50.55 6.31757C52.3454 8.53561 53.5444 11.06 54.7591 13.5235C55.9754 15.9854 57.2905 18.5098 59.2318 20.609C56.6 17.3312 54.4719 13.5969 53.6731 9.95804C52.8743 6.31914 53.5397 2.81623 55.8592 1.08744C56.5635 0.578651 57.3799 0.245269 58.24 0.115188C58.3404 0.0979938 58.4424 0.0839261 58.546 0.0714213C60.7008 -0.184919 63.2793 0.543478 65.4796 2.30666C67.9027 4.24803 69.5913 7.13664 70.4388 9.88301C71.2863 12.6294 71.3898 15.2773 71.3773 17.8376Z" fill="#F2F2F2"/>
<path d="M48.5183 29.369H47.8482C47.6347 29.2378 47.4202 29.108 47.2047 28.9798C47.0713 28.897 46.9364 28.8173 46.8014 28.736C44.5713 27.3964 42.3276 26.1121 40.0703 24.883C37.8151 23.6528 35.5489 22.4799 33.2717 21.3644C33.2114 21.3386 33.162 21.2926 33.1322 21.2344C33.1024 21.1761 33.094 21.1093 33.1085 21.0455C33.1109 21.0372 33.1146 21.0293 33.1195 21.0221C33.1509 20.9627 33.2215 20.9377 33.3251 20.9877C33.6045 21.1253 33.8854 21.2628 34.1647 21.4035C36.4482 22.5383 38.7222 23.7304 40.9868 24.9799C43.2499 26.2288 45.5004 27.5335 47.7383 28.8939C47.7854 28.922 47.8325 28.9517 47.8795 28.9798C48.093 29.1096 48.3048 29.2393 48.5183 29.369Z" fill="white"/>
<path d="M57.1556 29.3693H56.7412C56.647 29.2396 56.5545 29.1098 56.4603 28.9801C54.2475 25.9258 52.0352 22.8715 49.8234 19.8172C46.2012 14.8168 42.5802 9.81649 38.9602 4.81613C38.9387 4.78922 38.9227 4.75844 38.913 4.72547C38.8817 4.61449 38.9633 4.54884 39.0684 4.55978C39.1128 4.56583 39.1553 4.58123 39.1932 4.60495C39.2311 4.62867 39.2634 4.66017 39.2881 4.69733C41.3189 7.50153 43.3492 10.3047 45.3789 13.1068C48.9822 18.0822 52.585 23.057 56.1873 28.0313C56.4164 28.347 56.6455 28.6644 56.8746 28.9801C56.9688 29.1098 57.063 29.2396 57.1556 29.3693Z" fill="white"/>
<path d="M66.3719 26.9219C66.3547 27.6174 66.3123 28.3021 66.2558 28.9805C66.2448 29.1102 66.2338 29.2399 66.2228 29.3697H65.7881C65.8007 29.24 65.8132 29.1102 65.8242 28.9805C65.9106 28.0004 65.9702 27.0094 65.9733 25.9918C65.9691 23.1707 65.6772 20.3573 65.1023 17.5948C64.491 14.6204 63.6209 11.7047 62.5018 8.88056C61.3272 5.90199 59.915 3.02189 58.2787 0.267869C58.2479 0.223004 58.234 0.168756 58.2394 0.114685C58.2567 -0.00879952 58.4214 -0.0463138 58.5454 0.0709188C58.5699 0.0939191 58.591 0.120227 58.6082 0.149074C58.8106 0.491393 59.0094 0.834754 59.2046 1.17916C60.7812 3.94885 62.1336 6.83932 63.2489 9.82311C64.3112 12.6568 65.1235 15.5773 65.6767 18.5515C66.1947 21.3106 66.4276 24.1154 66.3719 26.9219Z" fill="white"/>
<path d="M96.6299 28.9805H1.36846C1.00561 28.9808 0.657728 29.1245 0.401163 29.3801C0.144598 29.6356 0.000318722 29.9821 0 30.3435V94.637C0.000318307 94.9983 0.144597 95.3448 0.401163 95.6004C0.657728 95.8559 1.00561 95.9997 1.36846 96H96.6299C96.8278 96 97.0233 95.9572 97.203 95.8747C97.3826 95.7921 97.5421 95.6716 97.6705 95.5217C97.6814 95.5099 97.6913 95.4974 97.7003 95.4842C97.782 95.3847 97.8481 95.2735 97.8965 95.1543C97.9653 94.9905 98.0005 94.8146 98 94.6369V30.3435C97.9996 29.9819 97.8551 29.6352 97.5982 29.3796C97.3413 29.124 96.993 28.9804 96.6299 28.9805ZM97.6093 94.637C97.6094 94.8271 97.5532 95.0131 97.4476 95.1715C97.3538 95.311 97.2265 95.4249 97.0772 95.5029C96.939 95.5741 96.7856 95.6111 96.6299 95.6108H1.36846C1.10925 95.6105 0.860738 95.5078 0.677447 95.3252C0.494156 95.1426 0.391046 94.8951 0.390731 94.637V30.3435C0.391044 30.0853 0.494156 29.8378 0.677447 29.6553C0.860738 29.4727 1.10924 29.37 1.36846 29.3697H96.6299C96.8894 29.3696 97.1383 29.4722 97.3219 29.6548C97.5055 29.8374 97.6089 30.0851 97.6093 30.3435V94.637Z" fill="#3F3D56"/>
<path d="M97.8041 34.4434H0.195312V34.833H97.8041V34.4434Z" fill="#3F3D56"/>
<path d="M3.52131 33.0723C4.1695 33.0723 4.69496 32.5489 4.69496 31.9033C4.69496 31.2577 4.1695 30.7344 3.52131 30.7344C2.87312 30.7344 2.34766 31.2577 2.34766 31.9033C2.34766 32.5489 2.87312 33.0723 3.52131 33.0723Z" fill="#3F3D56"/>
<path d="M6.8924 33.0723C7.54059 33.0723 8.06606 32.5489 8.06606 31.9033C8.06606 31.2577 7.54059 30.7344 6.8924 30.7344C6.24421 30.7344 5.71875 31.2577 5.71875 31.9033C5.71875 32.5489 6.24421 33.0723 6.8924 33.0723Z" fill="#3F3D56"/>
<path d="M10.2674 33.0723C10.9156 33.0723 11.4411 32.5489 11.4411 31.9033C11.4411 31.2577 10.9156 30.7344 10.2674 30.7344C9.61921 30.7344 9.09375 31.2577 9.09375 31.9033C9.09375 32.5489 9.61921 33.0723 10.2674 33.0723Z" fill="#3F3D56"/>
<path d="M43.4683 67.5679C42.2945 66.8069 41.7107 65.0383 41.9983 63.4208C42.2859 61.8033 43.369 60.4101 44.6674 59.8093C45.2991 59.5258 45.9915 59.403 46.6826 59.4519C47.3736 59.5008 48.0416 59.72 48.6266 60.0896C49.8173 60.8148 51.5013 61.212 52.0667 62.6629C52.5013 63.7778 51.9501 66.0419 51.3653 67.1249C50.8599 68.0609 49.8993 68.489 48.9969 68.6751C47.9985 68.8779 46.9681 68.8647 45.9753 68.6366C44.9824 68.4084 44.0504 67.9705 43.2421 67.3526L43.4683 67.5679Z" fill="#2F2E41"/>
<path d="M42.8574 76.1589L41.9189 77.7705L41.795 77.9831L41.6145 78.2957H38.8477L39.0344 77.9831L39.5178 77.1718L40.6446 75.2773L41.9205 75.7854L42.8574 76.1589Z" fill="#FFB8B8"/>
<path d="M38.6384 78.2961L38.1331 77.9835L38.0703 77.9444L41.242 72.1875C41.3784 71.9383 41.5631 71.7186 41.7853 71.5409C42.0076 71.3633 42.263 71.2314 42.5368 71.1527C42.8824 71.0502 43.2485 71.0367 43.6008 71.1136C43.8064 71.1569 44.0042 71.2306 44.1878 71.3325C44.2633 71.3737 44.3362 71.4197 44.4059 71.47C44.6741 71.6573 44.8945 71.9047 45.0493 72.1922C45.2337 72.5288 45.3247 72.9081 45.3131 73.2913C45.3015 73.6745 45.1878 74.0478 44.9834 74.3727L43.7609 76.3188L42.7157 77.9835L42.5195 78.2961H38.6384Z" fill="#2F2E41"/>
<path d="M46.7882 69.6119C48.917 69.6119 50.6427 67.893 50.6427 65.7727C50.6427 63.6524 48.917 61.9336 46.7882 61.9336C44.6593 61.9336 42.9336 63.6524 42.9336 65.7727C42.9336 67.893 44.6593 69.6119 46.7882 69.6119Z" fill="#FFB8B8"/>
<path d="M50.6576 78.2971H41.993L42.0323 78.1861C42.0103 78.1189 41.9899 78.0516 41.971 77.9844C41.9507 77.9141 41.9333 77.8422 41.9177 77.7719C41.7769 77.1175 41.7774 76.4408 41.9192 75.7867C42.398 73.4452 44.3079 71.5429 44.3079 71.5429C44.3408 71.5179 44.3738 71.4944 44.4067 71.471C44.6909 71.2638 44.9991 71.0916 45.3248 70.9583C46.7436 70.3721 48.2313 70.6082 49.231 70.9114C49.5791 71.0163 49.9195 71.1453 50.2495 71.2975C50.3656 71.3522 50.4285 71.3866 50.4285 71.3866L50.5273 74.3893L50.6466 77.9844L50.6576 78.2971Z" fill="#6C63FF"/>
<path d="M54.6653 77.9841L54.003 74.6297L53.3345 71.2472C53.3066 71.1075 53.237 70.9794 53.1347 70.8799C53.0325 70.7803 52.9024 70.7138 52.7616 70.6892L51.3617 70.4484L50.0591 70.2249C49.9335 70.2024 49.8041 70.2145 49.6848 70.2599C49.5656 70.3054 49.4611 70.3825 49.3827 70.4828C49.2848 70.6044 49.2312 70.7553 49.2305 70.9111C49.2305 71.0074 49.2503 71.1026 49.2886 71.1909C49.9681 72.7696 49.9807 75.269 49.808 77.9842C49.8002 78.0873 49.7939 78.192 49.786 78.2968H54.7281L54.6653 77.9841Z" fill="#2F2E41"/>
<path d="M45.3251 70.9583C45.2963 70.8445 45.2395 70.7397 45.1599 70.6532C45.0803 70.5668 44.9803 70.5014 44.869 70.4629C44.7578 70.4245 44.6386 70.4142 44.5224 70.433C44.4061 70.4518 44.2963 70.4991 44.203 70.5706L43.6019 71.1146L41.1411 73.3467C41.0644 73.4153 41.0043 73.5002 40.9653 73.5952C40.6875 74.2564 40.1461 75.5616 39.5168 77.1732C39.4148 77.4358 39.3096 77.7062 39.2013 77.9844C39.1636 78.0876 39.1229 78.1923 39.082 78.297H43.1374C43.1703 78.1923 43.2033 78.0876 43.2362 77.9844C43.4167 77.417 43.5925 76.8605 43.762 76.3197C44.2578 74.7488 44.7051 73.3217 45.0504 72.1931C45.1462 71.8805 45.2335 71.5919 45.3125 71.3272C45.3494 71.2075 45.3537 71.0802 45.3251 70.9583Z" fill="#2F2E41"/>
<path d="M55.5742 78.2962H55.8363L55.8002 78.2087L55.7045 77.9836L54.2277 74.4932L54.0017 74.6292L52.1875 75.7218L53.1181 77.9836L53.2468 78.2962H54.7268H55.5742Z" fill="#FFB8B8"/>
<path d="M54.0791 71.7253C53.8793 71.2044 53.485 70.7806 52.9787 70.5426C52.4723 70.3046 51.8932 70.2708 51.3625 70.4483C51.2946 70.4707 51.2281 70.4968 51.1632 70.5264C50.7914 70.6916 50.4745 70.9589 50.2498 71.2971C50.1581 71.432 50.0828 71.5774 50.0254 71.73C49.9235 71.995 49.8754 72.2774 49.8837 72.561C49.8921 72.8446 49.9568 73.1237 50.074 73.3822L50.5276 74.3889L52.1503 77.984L52.2915 78.2966H55.5763L55.8023 78.2091L56.3892 77.984L56.4709 77.9527L54.0791 71.7253Z" fill="#2F2E41"/>
<path d="M49.8123 61.3631C49.9467 61.4032 50.0905 61.3981 50.2217 61.3485C50.3528 61.299 50.4639 61.2077 50.5377 61.0889C50.6076 60.9679 50.6487 60.8324 50.6579 60.6931C50.6671 60.5537 50.6441 60.4141 50.5908 60.285C50.4814 60.0272 50.309 59.8007 50.0893 59.6262C49.8398 59.4013 49.5361 59.2447 49.2077 59.1716C49.0437 59.1364 48.8739 59.1368 48.7101 59.1727C48.5462 59.2086 48.3919 59.2791 48.2578 59.3796C48.1261 59.4833 48.0285 59.6239 47.9774 59.7832C47.9264 59.9426 47.9242 60.1135 47.9713 60.2741C48.071 60.5623 48.3414 60.7555 48.6114 60.8993C49.147 61.1841 49.7377 61.3514 50.3437 61.3898L49.8123 61.3631Z" fill="#2F2E41"/>
<path d="M50.5642 65.6585C49.9445 65.7436 50.0241 65.4294 49.7759 64.8575C49.5277 64.2856 49.1955 63.6067 48.5726 63.5487C48.0622 63.5013 47.6416 63.9077 47.2281 64.2095C46.4911 64.7474 45.4978 65.0107 44.6434 64.688C43.7891 64.3653 43.1954 63.3512 43.5196 62.5003C43.6205 62.2653 43.7687 62.0535 43.9552 61.878C44.1416 61.7024 44.3623 61.5669 44.6035 61.4797C45.0873 61.3084 45.6012 61.2373 46.1136 61.2708C47.2532 61.3071 48.371 61.592 49.388 62.1056C50.0898 62.4608 50.7731 62.9689 51.0393 63.7068C51.3056 64.4447 51.4808 65.4817 50.7195 65.6813L50.5642 65.6585Z" fill="#2F2E41"/>
<path d="M49.4984 59.3336C49.1921 58.8026 49.445 58.0739 49.9462 57.7191C50.4473 57.3643 51.1197 57.3295 51.7177 57.4718C52.3092 57.6202 52.8511 57.9208 53.289 58.3437C53.727 58.7665 54.0457 59.2965 54.2131 59.8807C54.4669 60.8094 54.316 61.8068 54.5309 62.7452C54.6455 63.2454 54.8616 63.7169 55.1661 64.1308C55.4705 64.5447 55.8568 64.8921 56.3011 65.1516C56.7455 65.4112 57.2385 65.5774 57.7497 65.64C58.261 65.7027 58.7797 65.6604 59.274 65.5158C59.9177 65.3276 60.5719 64.8698 60.6352 64.2045C60.7019 64.9685 60.527 65.7341 60.135 66.3941C59.7431 67.0542 59.1537 67.5756 58.4495 67.8854C57.62 68.2301 56.6948 68.2525 55.7964 68.2296C55.2109 68.2146 54.6121 68.1795 54.072 67.9539C53.6983 67.7841 53.3624 67.5418 53.0839 67.2411C52.8054 66.9404 52.59 66.5873 52.4503 66.2026C52.1753 65.4294 52.101 64.5994 52.2344 63.7899C52.3228 63.1603 52.4986 62.5431 52.5478 61.9092C52.597 61.2753 52.5037 60.5985 52.1114 60.097C51.719 59.5955 50.9695 59.3393 50.4116 59.6484C50.1875 59.7726 50.0066 59.9755 49.763 60.0556C49.5194 60.1358 49.1742 59.9949 49.1963 59.7404L49.4984 59.3336Z" fill="#2F2E41"/>
<path d="M75.8047 78.2959L75.8345 77.9832L76.7197 68.811C77.0098 68.5847 77.3215 68.3873 77.6503 68.2217C79.4724 67.3073 81.2301 67.7449 82.1811 68.1232C82.4331 68.2215 82.6767 68.3401 82.9093 68.478L83.4272 77.9832L83.4445 78.2959H75.8047Z" fill="#6C63FF"/>
<path d="M79.9483 66.3697C82.0771 66.3697 83.8029 64.6508 83.8029 62.5305C83.8029 60.4102 82.0771 58.6914 79.9483 58.6914C77.8195 58.6914 76.0938 60.4102 76.0938 62.5305C76.0938 64.6508 77.8195 66.3697 79.9483 66.3697Z" fill="#FFB8B8"/>
<path d="M83.0723 64.8728C83.3588 64.5721 83.549 64.1932 83.6188 63.7845C83.6885 63.3758 83.6346 62.9556 83.4639 62.5775C83.2932 62.1994 83.0134 61.8803 82.6602 61.661C82.3069 61.4417 81.8962 61.332 81.4801 61.3458C80.9471 61.3636 80.4449 61.5808 79.9362 61.7403C79.1653 62.0015 78.3428 62.0752 77.5374 61.9554C76.7272 61.8301 75.9961 61.4002 75.4946 60.7541C75.0177 60.1012 74.869 59.1958 75.2059 58.4614C75.5949 57.6137 76.5034 57.1466 77.3581 56.7671C77.7028 56.5952 78.0709 56.4747 78.4508 56.4095C78.6411 56.378 78.8358 56.386 79.0229 56.433C79.2099 56.4799 79.3852 56.5648 79.5378 56.6824C79.778 56.8882 79.9188 57.1974 80.1801 57.3757C80.4743 57.5764 80.8565 57.5712 81.2113 57.6065C82.0106 57.6862 82.7665 58.0064 83.3787 58.5244C83.9908 59.0425 84.43 59.7338 84.638 60.5066C84.846 61.2793 84.8128 62.0968 84.5429 62.8504C84.2731 63.6039 83.7792 64.2577 83.1272 64.7249L83.0723 64.8728Z" fill="#2F2E41"/>
<path d="M78.2211 69.8106L77.6468 68.2225L77.6109 68.1235C77.5939 68.0766 77.5664 68.0341 77.5305 67.9994C77.4946 67.9646 77.4512 67.9384 77.4036 67.9228C77.3561 67.9072 77.3055 67.9025 77.2559 67.9092C77.2063 67.9159 77.1588 67.9338 77.1171 67.9615L76.465 68.3945C76.465 68.3945 72.2826 68.3945 71.9468 70.8939C71.9421 70.933 71.9358 70.9767 71.9311 71.0236C71.9309 71.0258 71.9303 71.0279 71.9295 71.0299C71.8871 71.194 71.0978 74.2327 70.4198 77.9841C70.401 78.0873 70.3821 78.192 70.3633 78.2967H79.4516C79.7473 74.5283 79.5819 71.0244 78.2211 69.8106Z" fill="#2F2E41"/>
<path d="M89.061 77.9839C88.5651 74.1355 87.8558 71.0234 87.8558 71.0234C87.8495 70.9765 87.8432 70.9327 87.8384 70.8936C87.5042 68.3943 83.3218 68.3943 83.3218 68.3943L82.6701 67.9615C82.6283 67.9338 82.5809 67.9159 82.5312 67.9092C82.4815 67.9025 82.431 67.9072 82.3834 67.9228C82.3358 67.9385 82.2924 67.9647 82.2565 67.9995C82.2206 68.0343 82.1931 68.0769 82.1761 68.1238L81.5657 69.8104C80.2049 71.0242 80.0395 74.5279 80.3352 78.2964L89.1002 78.2965C89.0877 78.1918 89.0736 78.087 89.061 77.9839Z" fill="#2F2E41"/>
<path d="M15.4481 69.2208L14.5159 77.9835L14.4829 78.2961H11.9609C11.9907 78.1945 12.0206 78.0898 12.052 77.9835C12.7676 75.5388 13.7422 71.9703 13.637 71.0246C13.4722 69.549 14.6257 69.0566 14.6257 69.0566L14.6979 69.0707L15.4481 69.2208Z" fill="#6C63FF"/>
<path d="M19.5108 66.5162C21.6396 66.5162 23.3654 64.7973 23.3654 62.677C23.3654 60.5567 21.6396 58.8379 19.5108 58.8379C17.382 58.8379 15.6562 60.5567 15.6562 62.677C15.6562 64.7973 17.382 66.5162 19.5108 66.5162Z" fill="#A0616A"/>
<path d="M24.5039 76.4362C24.3095 76.7931 24.1502 77.1679 24.0284 77.5554C23.9828 77.6929 23.9389 77.8367 23.8981 77.9837C23.8683 78.0853 23.8416 78.19 23.8149 78.2963H13.6484C13.6626 78.1931 13.6751 78.0884 13.6893 77.9837C14.2088 73.8961 14.6293 69.7477 14.6968 69.0708C14.7031 69.0068 14.7062 68.9739 14.7062 68.9739C20.7985 65.7758 25.2446 69.9587 25.2446 69.9587C25.2446 69.9587 25.2509 69.9884 25.2603 70.0462C25.3577 70.6308 25.8535 74.0446 24.5039 76.4362Z" fill="#6C63FF"/>
<path d="M24.0295 77.5552L23.3516 76.1078L23.5163 70.3681L25.2615 70.0461L25.3227 70.0352C26.2248 70.5574 26.9228 71.3684 27.3032 72.336C27.6422 73.1801 28.2872 75.7186 28.8318 77.9835C28.857 78.0882 28.882 78.193 28.9072 78.2961H24.3763L24.2304 77.9835L24.0295 77.5552Z" fill="#6C63FF"/>
<path d="M30.2283 52.5049H7.93998C7.4619 52.5055 7.00358 52.6949 6.66553 53.0315C6.32748 53.3682 6.1373 53.8247 6.13672 54.3009V76.5C6.1373 76.9762 6.32748 77.4327 6.66553 77.7694C7.00358 78.1061 7.4619 78.2955 7.93998 78.296H30.2283C30.7065 78.2957 31.165 78.1064 31.503 77.7697C31.8411 77.4329 32.0312 76.9763 32.0315 76.5V54.3009C32.0312 53.8247 31.8411 53.368 31.503 53.0313C31.165 52.6945 30.7065 52.5052 30.2283 52.5049ZM31.7176 76.5C31.7173 76.8934 31.5603 77.2705 31.2811 77.5486C31.0019 77.8267 30.6232 77.9831 30.2283 77.9834H7.93998C7.54516 77.9828 7.16668 77.8264 6.8875 77.5483C6.60831 77.2702 6.4512 76.8933 6.4506 76.5V54.3009C6.4512 53.9076 6.60831 53.5307 6.8875 53.2526C7.16668 52.9746 7.54516 52.8181 7.93998 52.8175H30.2283C30.6232 52.8178 31.0019 52.9742 31.2811 53.2524C31.5603 53.5305 31.7173 53.9076 31.7176 54.3009V76.5ZM14.5141 77.9834L14.4811 78.296H23.8143C23.8409 78.1898 23.8676 78.085 23.8974 77.9834H14.5141Z" fill="#3F3D56"/>
<path d="M60.1424 52.5049H37.854C37.376 52.5055 36.9176 52.6949 36.5796 53.0315C36.2415 53.3682 36.0514 53.8247 36.0508 54.3009V76.5C36.0514 76.9762 36.2415 77.4327 36.5796 77.7694C36.9176 78.1061 37.376 78.2955 37.854 78.296H60.1424C60.6205 78.2957 61.079 78.1064 61.4171 77.7697C61.7552 77.4329 61.9453 76.9763 61.9456 76.5V54.3009C61.9453 53.8247 61.7552 53.368 61.4171 53.0313C61.079 52.6945 60.6205 52.5052 60.1424 52.5049ZM61.6317 76.5C61.6314 76.8934 61.4744 77.2705 61.1951 77.5486C60.9159 77.8267 60.5373 77.9831 60.1424 77.9834H37.854C37.4592 77.9828 37.0807 77.8264 36.8016 77.5483C36.5224 77.2702 36.3653 76.8933 36.3647 76.5V54.3009C36.3653 53.9077 36.5224 53.5307 36.8016 53.2526C37.0807 52.9746 37.4592 52.8181 37.854 52.8175H60.1424C60.5373 52.8178 60.9159 52.9742 61.1951 53.2524C61.4744 53.5305 61.6314 53.9076 61.6317 54.3009V76.5ZM41.9705 77.9834C41.9894 78.0506 42.0098 78.1179 42.0317 78.1851L41.9925 78.296H49.786C49.7939 78.1913 49.8002 78.0866 49.808 77.9834H41.9705Z" fill="#3F3D56"/>
<path d="M90.0604 52.5049H67.772C67.2939 52.5052 66.8354 52.6945 66.4972 53.0312C66.1591 53.368 65.9691 53.8246 65.9688 54.3009V76.5C65.9691 76.9763 66.1591 77.4329 66.4972 77.7697C66.8354 78.1064 67.2939 78.2958 67.772 78.296H90.0604C90.5384 78.2955 90.9967 78.1061 91.3348 77.7694C91.6728 77.4327 91.863 76.9762 91.8635 76.5V54.3009C91.863 53.8247 91.6728 53.3683 91.3348 53.0316C90.9967 52.6949 90.5384 52.5055 90.0604 52.5049ZM91.5497 76.5C91.5491 76.8933 91.392 77.2702 91.1128 77.5483C90.8336 77.8264 90.4552 77.9828 90.0604 77.9834H67.772C67.3771 77.9831 66.9985 77.8267 66.7192 77.5486C66.44 77.2705 66.283 76.8934 66.2826 76.5V54.3009C66.283 53.9076 66.44 53.5304 66.7192 53.2523C66.9985 52.9742 67.3771 52.8178 67.772 52.8175H90.0604C90.4552 52.8181 90.8336 52.9746 91.1128 53.2526C91.392 53.5307 91.5491 53.9077 91.5497 54.3009V76.5ZM79.478 77.9834C79.4702 78.0866 79.4623 78.1913 79.4545 78.296H86.2169C86.2295 78.1929 86.2436 78.0882 86.2561 77.9834H79.478Z" fill="#3F3D56"/>
<path d="M74.8967 87.3623H23.1071C22.7741 87.3623 22.4547 87.2305 22.2193 86.996C21.9838 86.7615 21.8516 86.4435 21.8516 86.1118C21.8516 85.7802 21.9838 85.4621 22.2193 85.2276C22.4547 84.9931 22.7741 84.8613 23.1071 84.8613H74.8967C75.2296 84.8613 75.549 84.9931 75.7844 85.2276C76.0199 85.4621 76.1522 85.7802 76.1522 86.1118C76.1522 86.4435 76.0199 86.7615 75.7844 86.996C75.549 87.2305 75.2296 87.3623 74.8967 87.3623Z" fill="#CCCCCC"/>
<path d="M60.3787 45.9394H37.6227C37.2897 45.9394 36.9704 45.8077 36.7349 45.5732C36.4995 45.3387 36.3672 45.0206 36.3672 44.689C36.3672 44.3573 36.4995 44.0392 36.7349 43.8047C36.9704 43.5702 37.2897 43.4385 37.6227 43.4385H60.3787C60.7117 43.4385 61.0311 43.5702 61.2665 43.8047C61.502 44.0392 61.6342 44.3573 61.6342 44.689C61.6342 45.0206 61.502 45.3387 61.2665 45.5732C61.0311 45.8077 60.7117 45.9394 60.3787 45.9394Z" fill="#6C63FF"/>
<path d="M21.3602 66.0222C21.4908 66.1505 21.6633 66.2275 21.8463 66.2391C22.0292 66.2508 22.2103 66.1964 22.3562 66.0858C23.2646 65.4151 24.0621 64.5802 24.5341 63.5619C25.0749 62.395 25.1353 60.9632 24.4832 59.8542C23.932 58.9167 22.9586 58.3117 21.9885 57.815C21.6119 57.6032 21.2061 57.4475 20.7842 57.3526C20.3578 57.2589 19.9115 57.3307 19.5363 57.5532C19.3528 57.6678 19.2081 57.8349 19.1213 58.0326C19.0345 58.2303 19.0096 58.4495 19.0497 58.6616C18.5837 58.132 17.9869 57.733 17.3184 57.504C16.8974 57.34 16.4365 57.3067 15.9961 57.4085C15.3805 57.5824 14.9311 58.1272 14.6853 58.7156C14.4865 59.1632 14.4179 59.6574 14.4872 60.1419C14.5237 60.383 14.6105 60.6138 14.7422 60.8194C14.8739 61.025 15.0474 61.2007 15.2516 61.3353C15.7605 61.6489 16.4099 61.6263 16.9944 61.4982C17.5789 61.3701 18.1447 61.1472 18.7405 61.0908C19.3364 61.0345 19.9999 61.1824 20.3625 61.6567C20.6178 61.9907 20.6834 62.4271 20.7407 62.843L21.0389 65.0061C21.0633 65.3191 21.1435 65.6252 21.2759 65.91C21.2988 65.951 21.3272 65.9888 21.3602 66.0222Z" fill="#2F2E41"/>
</g>
<defs>
<clipPath id="clip0_219_2875">
<rect width="98" height="96" fill="white"/>
</clipPath>
</defs>
</svg>
