<svg width="126" height="84" viewBox="0 0 126 84" fill="none" xmlns="http://www.w3.org/2000/svg">
<g clip-path="url(#clip0_219_2845)">
<path d="M125.998 44.6444C125.998 61.6351 115.171 76.1119 100.006 81.6205C97.6991 82.4601 95.3177 83.0818 92.8935 83.4773C86.2243 84.5652 79.3865 83.9476 73.0234 81.6825C57.7623 76.2192 46.8561 61.6936 46.8633 44.636C46.8633 22.9095 64.5787 5.2891 86.4308 5.2891C94.6894 5.27716 102.743 7.84699 109.453 12.6354C119.471 19.7742 125.998 31.4508 125.998 44.6444Z" fill="#E5E5E5"/>
<path d="M100.01 81.6205C97.703 82.4601 95.3216 83.0818 92.8974 83.4773C86.2282 84.5653 79.3904 83.9476 73.0273 81.6825L74.8546 74.3898L74.9649 73.9521L78.6939 73.9665L97.4273 74.0333L97.6671 74.7381L100.01 81.6205Z" fill="#2F2E41"/>
<path d="M34.3699 0H0V38.6821H34.3699V0Z" fill="#E6E6E6"/>
<path d="M33.6936 0.817383H0.609375V37.8629H33.6936V0.817383Z" fill="white"/>
<path d="M17.1865 36.5466C18.2108 36.5466 19.0411 35.7207 19.0411 34.702C19.0411 33.6833 18.2108 32.8574 17.1865 32.8574C16.1623 32.8574 15.332 33.6833 15.332 34.702C15.332 35.7207 16.1623 36.5466 17.1865 36.5466Z" fill="#E6E6E6"/>
<path d="M16.8704 13.9316H6.21875V15.0155H16.8704V13.9316Z" fill="#E6E6E6"/>
<path d="M22.295 17.1807H6.21875V18.2645H22.295V17.1807Z" fill="#6C63FF"/>
<path d="M20.717 20.4473H6.21875V21.5311H20.717V20.4473Z" fill="#E6E6E6"/>
<path d="M28.6071 23.6289H6.21875V24.7127H28.6071V23.6289Z" fill="#6C63FF"/>
<path d="M24.6991 26.6594H6.45312V27.7432H24.6991V26.6594Z" fill="#E6E6E6"/>
<path d="M48.8721 62.9438C49.0028 63.0774 49.1227 63.2209 49.2307 63.3732L66.03 62.9644L67.9898 59.4023L73.781 61.6415L70.9274 68.2827C70.6969 68.8192 70.2976 69.2668 69.7895 69.5584C69.2815 69.85 68.692 69.9699 68.1097 69.8999L49.1293 67.6194C48.6816 68.1831 48.0719 68.5979 47.3813 68.8087C46.6908 69.0194 45.9522 69.016 45.2636 68.7989C44.5751 68.5819 43.9693 68.1615 43.5268 67.5937C43.0843 67.0258 42.8261 66.3375 42.7866 65.6201C42.747 64.9028 42.928 64.1905 43.3054 63.5779C43.6828 62.9654 44.2388 62.4816 44.8993 62.191C45.5599 61.9004 46.2938 61.8167 47.0033 61.951C47.7129 62.0854 48.3645 62.4314 48.8715 62.9431L48.8721 62.9438Z" fill="#9F616A"/>
<path d="M71.4844 42.6041L79.3462 40.0413L81.6553 36.8916L92.892 37.553L94.5417 41.2286L100.533 44.0446L99.6126 61.0537L98.0373 76.972C89.937 72.8 74.8197 75.9807 74.6873 76.0324L71.4844 42.6041Z" fill="#6C63FF"/>
<path d="M73.1647 65.6256L65.168 62.4433L65.202 62.3018C65.2363 62.1586 68.6398 48.0126 69.0918 45.7393C69.5625 43.3709 71.2825 42.7161 71.3555 42.6895L71.4088 42.6699L74.5735 43.628L75.9634 54.4902L73.1647 65.6256Z" fill="#6C63FF"/>
<path d="M90.4329 76.2725C90.6204 76.268 90.8079 76.2783 90.9937 76.3032L102.114 63.7725L100.821 59.9221L106.409 57.2207L109.365 63.8172C109.604 64.3501 109.663 64.9457 109.532 65.5146C109.402 66.0834 109.089 66.5948 108.642 66.972L94.0558 79.2643C94.1669 79.9742 94.0581 80.7008 93.7439 81.3477C93.4297 81.9946 92.9249 82.5309 92.2967 82.8855C91.6686 83.2401 90.9467 83.396 90.2273 83.3326C89.5078 83.2692 88.8248 82.9894 88.2691 82.5305C87.7134 82.0716 87.3114 81.4553 87.1164 80.7635C86.9214 80.0718 86.9428 79.3374 87.1777 78.6581C87.4126 77.9787 87.8499 77.3866 88.4314 76.9605C89.0129 76.5343 89.711 76.2944 90.4329 76.2725Z" fill="#9F616A"/>
<path d="M101.225 64.9928L96.5859 54.1396L98.3953 46.5797L100.345 44.13C100.488 44.0693 100.641 44.0387 100.797 44.0401C100.952 44.0415 101.105 44.075 101.247 44.1383C101.966 44.4261 102.578 45.3083 103.067 46.7601L107.414 59.077L101.225 64.9928Z" fill="#6C63FF"/>
<path d="M77.1563 32.8695V24.6872C77.1515 23.2474 77.4319 21.8207 77.9814 20.4886C78.531 19.1565 79.3389 17.9451 80.3592 16.9236C81.3794 15.9021 82.5919 15.0905 83.9275 14.5351C85.2631 13.9797 86.6956 13.6914 88.1432 13.6866C89.5909 13.6818 91.0253 13.9607 92.3645 14.5073C93.7038 15.0539 94.9217 15.8575 95.9487 16.8723C96.9757 17.887 97.7917 19.0931 98.3501 20.4215C98.9085 21.7499 99.1984 23.1747 99.2032 24.6146C99.2033 24.6388 99.2033 24.663 99.2032 24.6872V32.8695C99.2028 33.26 99.0466 33.6344 98.769 33.9105C98.4914 34.1866 98.115 34.3419 97.7224 34.3424H78.6371C78.2445 34.3419 77.8681 34.1866 77.5905 33.9105C77.3129 33.6344 77.1568 33.26 77.1563 32.8695Z" fill="#2F2E41"/>
<path d="M85.914 34.1524C90.3775 34.1524 93.996 30.5534 93.996 26.1138C93.996 21.6742 90.3775 18.0752 85.914 18.0752C81.4504 18.0752 77.832 21.6742 77.832 26.1138C77.832 30.5534 81.4504 34.1524 85.914 34.1524Z" fill="#9F616A"/>
<path d="M74.5469 25.3423C74.5495 23.0427 75.469 20.8382 77.1038 19.2122C78.7386 17.5862 80.955 16.6715 83.267 16.6689H84.9124C87.2243 16.6715 89.4407 17.5862 91.0755 19.2122C92.7102 20.8382 93.6298 23.0428 93.6323 25.3423V25.5059H90.1552L88.9692 22.2024L88.7321 25.5059H86.9352L86.3369 23.8394L86.217 25.5059H74.5469V25.3423Z" fill="#2F2E41"/>
<path d="M85.1212 35.2633C84.958 35.0434 84.8605 34.7822 84.84 34.5096C84.8195 34.2371 84.8768 33.9643 85.0053 33.7227C86.7488 30.4243 89.1899 24.3293 85.9498 20.5705L85.7174 20.3008H95.1244V34.3482L86.5789 35.8479C86.4924 35.8631 86.4047 35.8708 86.3169 35.8709C86.0836 35.8709 85.8537 35.8159 85.6459 35.7103C85.4382 35.6048 85.2586 35.4517 85.1218 35.2637L85.1212 35.2633Z" fill="#2F2E41"/>
<path d="M17.1548 3.0127C16.3748 3.01266 15.6123 3.24267 14.9638 3.67365C14.3152 4.10463 13.8097 4.71721 13.5112 5.43394C13.2127 6.15068 13.1345 6.93936 13.2867 7.70026C13.4388 8.46116 13.8144 9.16011 14.3659 9.70871C14.9174 10.2573 15.62 10.6309 16.385 10.7823C17.15 10.9337 17.943 10.8561 18.6636 10.5592C19.3842 10.2624 20.0002 9.75965 20.4335 9.11462C20.8669 8.46959 21.0982 7.71122 21.0983 6.93542V6.93521C21.0983 6.4201 20.9963 5.91003 20.7981 5.43413C20.5999 4.95823 20.3094 4.52581 19.9432 4.16157C19.577 3.79733 19.1423 3.5084 18.6638 3.31128C18.1853 3.11415 17.6725 3.01269 17.1546 3.0127H17.1548ZM17.1548 4.18934C17.3888 4.18934 17.6175 4.25835 17.8121 4.38764C18.0066 4.51693 18.1582 4.7007 18.2478 4.91571C18.3373 5.13071 18.3607 5.3673 18.3151 5.59554C18.2694 5.82379 18.1568 6.03345 17.9913 6.19801C17.8259 6.36257 17.6151 6.47463 17.3856 6.52004C17.1561 6.56544 16.9183 6.54214 16.7021 6.45308C16.4859 6.36402 16.3012 6.21321 16.1712 6.01971C16.0412 5.82621 15.9718 5.59872 15.9718 5.366C15.9718 5.05393 16.0965 4.75465 16.3183 4.53398C16.5402 4.31332 16.8411 4.18935 17.1548 4.18934ZM17.1548 9.85427C16.6874 9.85214 16.2276 9.73664 15.8153 9.51776C15.403 9.29889 15.0506 8.98327 14.7886 8.59827C14.8076 7.81376 16.3661 7.38194 17.1548 7.38194C17.9435 7.38194 19.502 7.81376 19.521 8.59827C19.2588 8.98299 18.9063 9.2984 18.494 9.51723C18.0818 9.73607 17.6221 9.85175 17.1548 9.85427Z" fill="#6C63FF"/>
<path d="M17.2011 35.4091C18.8257 32.4478 22.7177 30.5724 25.9015 32.2628C27.3346 33.0235 28.4737 34.3693 28.8354 35.9598C29.255 37.8075 28.3707 39.5693 27.4579 41.1215C26.9625 41.9641 26.4196 42.7895 26.0095 43.6782C25.585 44.5985 25.2815 45.6622 25.6011 46.6634C25.8889 47.5653 26.6105 48.2214 27.4006 48.7035C28.2727 49.2155 29.2003 49.6276 30.1657 49.9319C32.1528 50.5892 34.2489 50.8589 36.3388 50.7263C37.3775 50.6561 38.4074 50.4905 39.4155 50.2316C40.4878 49.9597 41.54 49.615 42.6141 49.3491C44.4073 48.906 46.452 48.6857 48.1525 49.5757C49.8045 50.4405 50.5438 52.2493 50.7724 54.009C51.1947 57.2583 49.8994 60.6302 47.5608 62.9056C46.4387 63.9973 45.0268 64.8993 43.4889 65.2683C42.1471 65.5903 40.4241 65.5696 39.3562 64.5719C38.1647 63.4584 38.445 61.6729 39.3914 60.4981C40.5994 58.9991 42.6459 58.6391 44.4721 58.6026C46.5495 58.5611 48.625 58.8687 50.7012 58.6775C51.7146 58.599 52.709 58.3604 53.647 57.9707C54.4715 57.61 55.2236 57.1038 55.8669 56.4765C57.1487 55.2379 58.0132 53.5879 58.443 51.8722C58.9606 49.809 58.8478 47.6407 58.446 45.5683C58.2319 44.4997 57.9561 43.4443 57.6201 42.4072C57.4814 41.9695 56.7866 42.1567 56.9264 42.5974C58.1638 46.5 58.8537 51.0126 56.463 54.636C55.4736 56.1726 53.9324 57.2761 52.1533 57.7216C50.0842 58.2331 47.913 57.9803 45.8095 57.9042C43.8093 57.8318 41.6129 57.9099 39.8983 59.0686C38.4918 60.019 37.508 61.8267 37.9331 63.5333C38.3431 65.1791 39.9332 66.0139 41.5236 66.1424C43.1923 66.2777 44.8343 65.7206 46.2357 64.8496C49.1509 63.0377 51.0892 59.8511 51.4948 56.4726C51.7062 54.7122 51.4911 52.816 50.6885 51.2182C50.2656 50.3532 49.6073 49.6236 48.7884 49.112C47.9719 48.6141 47.0287 48.369 46.0815 48.2823C43.9295 48.0852 41.862 48.82 39.8205 49.3822C38.7777 49.6831 37.7087 49.8861 36.6278 49.9884C35.5786 50.0749 34.5235 50.0578 33.4777 49.9374C32.44 49.8156 31.4174 49.5898 30.4254 49.2636C29.4533 48.9646 28.5225 48.5461 27.6547 48.0177C26.8891 47.5307 26.227 46.8333 26.1894 45.8829C26.1485 44.8524 26.6709 43.8885 27.1678 43.0197C28.1494 41.3034 29.362 39.6247 29.618 37.6156C29.8422 35.8581 29.1312 34.1259 27.9034 32.8723C27.288 32.2361 26.5472 31.733 25.7274 31.3947C24.9075 31.0565 24.0263 30.8902 23.1388 30.9063C21.3172 30.9582 19.573 31.7462 18.2331 32.9563C17.5685 33.5568 17.0093 34.2634 16.5784 35.0469C16.3565 35.4513 16.9775 35.8128 17.1996 35.408L17.2011 35.4091Z" fill="#3F3D56"/>
</g>
<defs>
<clipPath id="clip0_219_2845">
<rect width="126" height="84" fill="white"/>
</clipPath>
</defs>
</svg>
