<svg width="339" height="222" viewBox="0 0 339 222" fill="none" xmlns="http://www.w3.org/2000/svg">
<g clip-path="url(#clip0_219_2655)">
<path d="M329.822 221.51L330.325 221.5C330.131 215.912 329.534 210.344 328.54 204.841C326.367 193.059 322.752 185.321 317.796 181.842L317.508 182.253C329.083 190.379 329.816 221.2 329.822 221.51Z" fill="#F1F1F1"/>
<path d="M323.538 221.39L324.041 221.38C324.03 220.823 323.716 207.704 318.55 204.078L318.262 204.489C323.219 207.969 323.536 221.256 323.538 221.39Z" fill="#F1F1F1"/>
<path d="M314.646 182.298C316.035 182.298 317.16 181.173 317.16 179.785C317.16 178.397 316.035 177.271 314.646 177.271C313.258 177.271 312.133 178.397 312.133 179.785C312.133 181.173 313.258 182.298 314.646 182.298Z" fill="#F1F1F1"/>
<path d="M315.893 203.912C317.281 203.912 318.406 202.787 318.406 201.399C318.406 200.011 317.281 198.885 315.893 198.885C314.504 198.885 313.379 200.011 313.379 201.399C313.379 202.787 314.504 203.912 315.893 203.912Z" fill="#F1F1F1"/>
<path d="M324.71 183.805C324.458 185.743 324.72 187.714 325.469 189.52C326.777 188.058 327.635 186.248 327.939 184.31C328.242 182.372 327.979 180.387 327.18 178.595C325.915 180.085 325.063 181.882 324.71 183.805Z" fill="#F1F1F1"/>
<path d="M316.494 191.132C318.359 191.718 320.346 191.804 322.255 191.381C321.042 189.838 319.41 188.678 317.554 188.042C315.698 187.405 313.697 187.319 311.793 187.793C313.04 189.298 314.661 190.45 316.494 191.132V191.132Z" fill="#F1F1F1"/>
<path d="M316.4 210.273C317.708 210.683 319.1 210.743 320.438 210.447C319.589 209.365 318.444 208.553 317.143 208.106C315.842 207.66 314.44 207.6 313.105 207.932C313.98 208.987 315.116 209.794 316.4 210.273V210.273Z" fill="#F1F1F1"/>
<path d="M115.745 221.509L115.016 221.495C115.298 213.383 116.163 205.302 117.606 197.314C120.761 180.212 126.008 168.981 133.2 163.932L133.619 164.529C116.818 176.324 115.754 221.058 115.745 221.509Z" fill="#F1F1F1"/>
<path d="M124.866 221.336L124.137 221.321C124.152 220.513 124.608 201.472 132.106 196.209L132.525 196.806C125.33 201.857 124.87 221.142 124.866 221.336Z" fill="#F1F1F1"/>
<path d="M137.773 164.596C139.788 164.596 141.422 162.962 141.422 160.948C141.422 158.933 139.788 157.3 137.773 157.3C135.758 157.3 134.125 158.933 134.125 160.948C134.125 162.962 135.758 164.596 137.773 164.596Z" fill="#F1F1F1"/>
<path d="M135.969 195.968C137.984 195.968 139.617 194.334 139.617 192.32C139.617 190.305 137.984 188.672 135.969 188.672C133.954 188.672 132.32 190.305 132.32 192.32C132.32 194.334 133.954 195.968 135.969 195.968Z" fill="#F1F1F1"/>
<path d="M123.168 166.783C123.534 169.597 123.154 172.457 122.067 175.078C120.168 172.956 118.923 170.33 118.482 167.516C118.042 164.703 118.424 161.822 119.584 159.221C121.42 161.384 122.656 163.992 123.168 166.783V166.783Z" fill="#F1F1F1"/>
<path d="M135.096 177.417C132.389 178.268 129.505 178.392 126.734 177.778C128.494 175.539 130.863 173.856 133.557 172.932C136.251 172.008 139.155 171.882 141.919 172.571C140.108 174.756 137.756 176.427 135.096 177.417Z" fill="#F1F1F1"/>
<path d="M135.228 205.2C133.33 205.796 131.309 205.883 129.367 205.453C130.6 203.883 132.261 202.704 134.149 202.056C136.038 201.408 138.073 201.321 140.01 201.803C138.741 203.335 137.092 204.506 135.228 205.2Z" fill="#F1F1F1"/>
<path d="M59.3792 66.1628L57.6237 55.4246L52.667 54.1856C52.667 54.1856 48.7329 52.974 47.8134 60.8969C46.8939 68.8199 47.6068 83.6124 47.6068 83.6124L36.724 118.07C35.8884 118.467 35.1849 119.096 34.6977 119.883C34.2106 120.669 33.9605 121.579 33.9774 122.504C33.9942 123.429 34.2773 124.33 34.7927 125.098C35.3082 125.866 36.0341 126.47 36.8837 126.836C37.7332 127.202 38.6704 127.316 39.5829 127.164C40.4955 127.011 41.3448 126.599 42.0292 125.977C42.7136 125.354 43.2041 124.548 43.4419 123.654C43.6797 122.76 43.6548 121.816 43.3702 120.936L57.5205 88.5685L59.3792 66.1628Z" fill="#FFB7B7"/>
<path d="M89.5163 57.7115L86.9141 47.1465L90.9862 44.0611C90.9862 44.0611 94.1285 41.4024 98.0854 48.328C102.042 55.2537 107.196 69.1382 107.196 69.1382L130.736 96.5561C131.66 96.5932 132.554 96.8959 133.311 97.428C134.068 97.9601 134.656 98.699 135.003 99.5562C135.351 100.414 135.444 101.353 135.272 102.262C135.1 103.171 134.669 104.011 134.031 104.681C133.394 105.351 132.577 105.824 131.678 106.042C130.779 106.26 129.836 106.215 128.962 105.911C128.088 105.607 127.32 105.058 126.75 104.329C126.18 103.6 125.833 102.723 125.749 101.801L100.024 77.5882L89.5163 57.7115Z" fill="#FFB7B7"/>
<path d="M109.861 215.883L115.764 215.883L118.572 193.117L109.859 193.118L109.861 215.883Z" fill="#FFB7B7"/>
<path d="M108.355 213.957L119.981 213.956H119.981C121.946 213.956 123.83 214.737 125.22 216.126C126.609 217.515 127.39 219.399 127.39 221.363V221.604L108.356 221.605L108.355 213.957Z" fill="#2F2E41"/>
<path d="M35.7122 215.883L41.6151 215.883L44.4236 193.117L35.7109 193.118L35.7122 215.883Z" fill="#FFB7B7"/>
<path d="M34.207 213.956L45.8323 213.955H45.8327C47.7975 213.955 49.6819 214.736 51.0712 216.125C52.4605 217.514 53.2411 219.398 53.2412 221.362V221.603L34.2074 221.604L34.207 213.956Z" fill="#2F2E41"/>
<path d="M71.9189 37.4785C80.7365 37.4785 87.8846 30.3315 87.8846 21.5151C87.8846 12.6988 80.7365 5.55176 71.9189 5.55176C63.1012 5.55176 55.9531 12.6988 55.9531 21.5151C55.9531 30.3315 63.1012 37.4785 71.9189 37.4785Z" fill="#2F2E41"/>
<path d="M59.4561 12.9087C62.0361 10.329 62.559 6.66943 60.624 4.73472C58.689 2.8 55.0289 3.32279 52.4489 5.90242C49.8689 8.48204 49.346 12.1416 51.281 14.0764C53.216 16.0111 56.8761 15.4883 59.4561 12.9087Z" fill="#2F2E41"/>
<path d="M88.5582 7.83906C89.6332 5.32291 87.7846 2.12141 84.4292 0.688331C81.0738 -0.744751 77.4823 0.133257 76.4073 2.64941C75.3324 5.16557 77.181 8.36707 80.5364 9.80015C83.8917 11.2332 87.4832 10.3552 88.5582 7.83906Z" fill="#2F2E41"/>
<path d="M84.3134 31.8249C87.9029 25.2595 85.4897 17.0278 78.9233 13.4388C72.357 9.84983 64.124 12.2627 60.5345 18.8281C56.945 25.3935 59.3582 33.6253 65.9246 37.2142C72.491 40.8032 80.7239 38.3903 84.3134 31.8249Z" fill="#FFB7B7"/>
<path d="M58.1836 16.8037C61.28 18.9375 64.9551 20.0731 68.7156 20.0581C67.3742 20.9881 65.8471 21.6162 64.2395 21.8993C69.2394 22.9717 74.4069 23.0007 79.4185 21.9846C80.5325 21.806 81.6074 21.4369 82.5961 20.8934C83.0888 20.6183 83.518 20.2426 83.8559 19.7908C84.1939 19.3389 84.4329 18.821 84.5575 18.2707C84.8905 16.3685 83.408 14.6403 81.8674 13.4756C79.5087 11.7195 76.789 10.5096 73.9052 9.93346C71.0215 9.35728 68.0456 9.42921 65.1931 10.144C63.3304 10.6254 61.4645 11.4388 60.2547 12.9344C59.0448 14.4301 58.6864 16.7358 59.8391 18.2759L58.1836 16.8037Z" fill="#2F2E41"/>
<path d="M65.6315 42.9435L52.2201 53.8945L63.9382 81.8308L64.1618 86.3007C64.1618 86.3007 51.9973 97.5147 44.4706 128.841C36.9439 160.167 21.7422 201.793 21.7422 201.793L52.154 209.231L73.2986 138.368L100.253 193.962L104.088 210.406L127.596 203.881L118.523 159.753L96.2706 91.256L98.0979 72.333C98.0979 72.333 102.17 62.8878 95.0959 52.888L92.877 43.4917L81.391 41.5342L65.6315 42.9435Z" fill="#2F2E41"/>
<path d="M291.15 142.363H198.039C197.295 142.362 196.583 142.067 196.057 141.541C195.531 141.015 195.235 140.302 195.234 139.559V108.153C195.235 107.409 195.531 106.697 196.057 106.171C196.583 105.645 197.295 105.349 198.039 105.349H291.15C291.893 105.349 292.606 105.645 293.132 106.171C293.658 106.697 293.953 107.409 293.954 108.153V139.559C293.953 140.302 293.658 141.015 293.132 141.541C292.606 142.067 291.893 142.362 291.15 142.363V142.363Z" fill="#E5E5E5"/>
<path d="M234.5 113.761H209.82V116.565H234.5V113.761Z" fill="white"/>
<path d="M267.034 117.126C267.964 117.126 268.717 116.372 268.717 115.443C268.717 114.514 267.964 113.761 267.034 113.761C266.105 113.761 265.352 114.514 265.352 115.443C265.352 116.372 266.105 117.126 267.034 117.126Z" fill="#7659B9"/>
<path d="M272.644 117.126C273.573 117.126 274.326 116.372 274.326 115.443C274.326 114.514 273.573 113.761 272.644 113.761C271.714 113.761 270.961 114.514 270.961 115.443C270.961 116.372 271.714 117.126 272.644 117.126Z" fill="#7659B9"/>
<path d="M278.249 117.126C279.178 117.126 279.932 116.372 279.932 115.443C279.932 114.514 279.178 113.761 278.249 113.761C277.32 113.761 276.566 114.514 276.566 115.443C276.566 116.372 277.32 117.126 278.249 117.126Z" fill="#7659B9"/>
<path d="M291.15 182.181H198.039C197.295 182.181 196.583 181.885 196.057 181.359C195.531 180.834 195.235 180.121 195.234 179.377V147.971C195.235 147.228 195.531 146.515 196.057 145.989C196.583 145.464 197.295 145.168 198.039 145.167H291.15C291.893 145.168 292.606 145.464 293.132 145.989C293.658 146.515 293.953 147.228 293.954 147.971V179.377C293.953 180.121 293.658 180.834 293.132 181.359C292.606 181.885 291.893 182.181 291.15 182.181V182.181Z" fill="#E5E5E5"/>
<path d="M234.5 153.579H209.82V156.383H234.5V153.579Z" fill="white"/>
<path d="M267.034 156.944C267.964 156.944 268.717 156.191 268.717 155.262C268.717 154.332 267.964 153.579 267.034 153.579C266.105 153.579 265.352 154.332 265.352 155.262C265.352 156.191 266.105 156.944 267.034 156.944Z" fill="#7659B9"/>
<path d="M272.644 156.944C273.573 156.944 274.326 156.191 274.326 155.262C274.326 154.332 273.573 153.579 272.644 153.579C271.714 153.579 270.961 154.332 270.961 155.262C270.961 156.191 271.714 156.944 272.644 156.944Z" fill="#7659B9"/>
<path d="M278.249 156.944C279.178 156.944 279.932 156.191 279.932 155.262C279.932 154.332 279.178 153.579 278.249 153.579C277.32 153.579 276.566 154.332 276.566 155.262C276.566 156.191 277.32 156.944 278.249 156.944Z" fill="#7659B9"/>
<path d="M291.15 222H198.039C197.295 221.999 196.583 221.703 196.057 221.178C195.531 220.652 195.235 219.939 195.234 219.196V187.789C195.235 187.046 195.531 186.333 196.057 185.808C196.583 185.282 197.295 184.986 198.039 184.985H291.15C291.893 184.986 292.606 185.282 293.132 185.808C293.658 186.333 293.953 187.046 293.954 187.789V219.196C293.953 219.939 293.658 220.652 293.132 221.178C292.606 221.703 291.893 221.999 291.15 222Z" fill="#E5E5E5"/>
<path d="M234.5 193.398H209.82V196.203H234.5V193.398Z" fill="white"/>
<path d="M267.034 196.762C267.964 196.762 268.717 196.009 268.717 195.08C268.717 194.151 267.964 193.397 267.034 193.397C266.105 193.397 265.352 194.151 265.352 195.08C265.352 196.009 266.105 196.762 267.034 196.762Z" fill="#7659B9"/>
<path d="M272.644 196.762C273.573 196.762 274.326 196.009 274.326 195.08C274.326 194.151 273.573 193.397 272.644 193.397C271.714 193.397 270.961 194.151 270.961 195.08C270.961 196.009 271.714 196.762 272.644 196.762Z" fill="#7659B9"/>
<path d="M278.249 196.763C279.178 196.763 279.932 196.01 279.932 195.081C279.932 194.152 279.178 193.398 278.249 193.398C277.32 193.398 276.566 194.152 276.566 195.081C276.566 196.01 277.32 196.763 278.249 196.763Z" fill="#7659B9"/>
<path d="M179.419 154.282C177.646 154.276 175.88 154.047 174.164 153.602L173.825 153.508L173.511 153.351C162.165 147.663 152.592 140.15 145.059 131.02C138.824 123.418 133.962 114.786 130.693 105.514C126.784 94.4127 124.904 82.6989 125.141 70.932C125.146 70.685 125.15 70.4943 125.15 70.3629C125.15 64.643 128.325 59.6241 133.24 57.5767C137.001 56.0098 171.152 41.9849 173.619 40.9716C178.266 38.6435 183.223 40.5867 184.017 40.9264C185.796 41.6539 217.366 54.5644 224.188 57.8125C231.219 61.1601 233.095 67.174 233.095 70.1997C233.095 83.8978 230.722 96.6998 226.043 108.25C222.264 117.599 216.907 126.23 210.207 133.767C197.28 148.313 184.349 153.469 184.225 153.515C182.679 154.046 181.053 154.306 179.419 154.282V154.282ZM176.378 146.751C177.499 147.002 180.08 147.379 181.763 146.765C183.9 145.986 194.722 140.375 204.836 128.995C218.809 113.272 225.899 93.5078 225.91 70.2502C225.885 69.779 225.55 66.4184 221.099 64.2992C214.409 61.1139 181.595 47.6982 181.264 47.563L181.173 47.5245C180.486 47.2364 178.297 46.6295 176.789 47.4199L176.487 47.5607C176.121 47.7109 139.87 62.5978 136.004 64.2085C133.299 65.3352 132.335 68.1264 132.335 70.363C132.335 70.5264 132.331 70.7641 132.325 71.0714C132.016 86.9852 135.699 126.144 176.378 146.751Z" fill="#3F3D56"/>
<path d="M175.123 44.2387C175.123 44.2387 138.543 59.2606 134.623 60.8935C130.704 62.5263 128.744 66.445 128.744 70.3638C128.744 74.2826 125.805 125.417 175.123 150.141C175.123 150.141 179.599 151.379 182.995 150.141C186.391 148.902 229.504 128.002 229.504 70.2005C229.504 70.2005 229.504 64.3224 222.645 61.0567C215.786 57.7911 182.625 44.2387 182.625 44.2387C182.625 44.2387 178.553 42.4426 175.123 44.2387Z" fill="#7659B9"/>
<path opacity="0.2" d="M179.043 55.9941V136.131C179.043 136.131 215.95 118.368 215.624 71.6692L179.043 55.9941Z" fill="black"/>
<path d="M338.59 222H0.410412C0.301564 222 0.197174 221.957 0.120206 221.88C0.0432394 221.803 0 221.699 0 221.59C0 221.481 0.0432394 221.377 0.120206 221.3C0.197174 221.223 0.301564 221.18 0.410412 221.18H338.59C338.698 221.18 338.803 221.223 338.88 221.3C338.957 221.377 339 221.481 339 221.59C339 221.699 338.957 221.803 338.88 221.88C338.803 221.957 338.698 222 338.59 222Z" fill="#CBCBCB"/>
</g>
<defs>
<clipPath id="clip0_219_2655">
<rect width="339" height="222" fill="white"/>
</clipPath>
</defs>
</svg>
